<?xml version="1.0" encoding="utf-8"?>
<!-- Generator: Adobe Illustrator 19.0.0, SVG Export Plug-In . SVG Version: 6.00 Build 0)  -->
<svg version="1.1" id="Layer_1" xmlns="http://www.w3.org/2000/svg" xmlns:xlink="http://www.w3.org/1999/xlink" x="0px" y="0px"
	 viewBox="0 0 400 480" style="enable-background:new 0 0 400 480;" xml:space="preserve">
<style type="text/css">
	.st0{fill:none;stroke:#000000;stroke-width:7;stroke-miterlimit:10;}
	.st1{stroke:#000000;stroke-miterlimit:10;}
	.st2{fill:none;stroke:#000000;stroke-width:4;stroke-miterlimit:10;}
</style>
<path id="XMLID_1_" class="st0" d="M301.2,375.9H82.5c-11,0-20-9-20-20V124.1c0-11,9-20,20-20h218.7c11,0,20,9,20,20v231.8
	C321.2,367,312.2,375.9,301.2,375.9z"/>
<path id="XMLID_275_" class="st0" d="M318.7,246.5"/>
<g id="XMLID_289_">
	<g id="XMLID_183_">
		<path id="XMLID_169_" d="M113.7,290c14-2.2,28-5.3,41.1-10.8c13.4-5.6,23.6-14,34.7-23.1c19.6-16.1,45.6-22.8,70.7-20.4
			c14.1,1.4,27.8,6.1,39.8,13.5c5.5,3.4,10.5-5.3,5-8.6c-22.1-13.6-48.7-18-74.2-13.7c-12.8,2.2-25.3,6.7-36.3,13.5
			c-12.2,7.4-21.8,18.4-34.4,25.3c-15.1,8.3-32.2,12.1-49.1,14.7C104.7,281.4,107.4,291,113.7,290L113.7,290z"/>
	</g>
</g>
<path id="XMLID_40_" class="st1" d="M142.9,257.9"/>
<path id="XMLID_33_" class="st1" d="M95.4,232.4"/>
<path id="XMLID_19_" class="st1" d="M77,216.6c0,26.8,20.3,48.5,45.5,48.5"/>
<path id="XMLID_129_" class="st1" d="M96.5,208.7c-11,0.6-19.5,3.9-19.5,7.9l21.6-7.6C97.9,209,97.2,208.8,96.5,208.7z"/>
<path id="XMLID_123_" class="st1" d="M100.1,209.2c-0.2,0-0.4,0-0.6-0.1c-1.3-0.1-2.5-0.2-3.8-0.2l40.6,42.5
	C136.3,229.5,120.5,211.5,100.1,209.2z"/>
<path id="XMLID_74_" class="st1" d="M138.9,275.3"/>
<path id="XMLID_69_" class="st1" d="M167.1,222"/>
<path id="XMLID_81_" class="st1" d="M181,201.9c-20.9-2.9-40.6,17.9-44.6,47.6l45.3-46.2C181.5,202.8,181.2,202.4,181,201.9z"/>
<path id="XMLID_76_" class="st1" d="M185,215.8c-0.5-2.6-1-5.3-1.7-7.9l2,21.3c0-0.4,0.1-0.8,0.1-1.3v-5
	C184.9,220.6,184.7,218.2,185,215.8z"/>
<path id="XMLID_122_" class="st1" d="M185.4,226.5l-40.3,41.9c18,3.6,35.4-13.4,40.1-38.5c0.1-0.7,0.1-1.3,0.2-2V226.5z"/>
<path id="XMLID_79_" class="st1" d="M136.2,269.7"/>
<path id="XMLID_78_" class="st1" d="M90.8,300.7"/>
<path id="XMLID_77_" class="st1" d="M69.5,309.1c17.4,16.2,43.8,9.5,59-15.1"/>
<path id="XMLID_131_" class="st1" d="M77.4,283.3c-0.1,0.1-0.2,0.2-0.2,0.2c-7,11.7-10.4,23-7.7,25.5l8.4-26.3
	C77.7,283,77.5,283.1,77.4,283.3z"/>
<path id="XMLID_75_" class="st1" d="M128,272.3c-15.3-14.2-38.6-8-52.2,13.9"/>
<path id="XMLID_84_" class="st1" d="M116.5,281.3"/>
<path id="XMLID_83_" class="st1" d="M175.5,296.1"/>
<path id="XMLID_82_" class="st1" d="M195,308c-9-27.1-36.1-44.4-60.6-38.8"/>
<path id="XMLID_130_" class="st1" d="M179.5,320.1c1.5-0.7,3-1.3,4.5-1.7c0.2-0.1,0.5-0.1,0.7-0.2c7-3,11.3-7,10.2-10.2l-18.7,12.7
	c0.4,0,0.8,0,1.2,0C178.2,320.5,178.9,320.3,179.5,320.1z"/>
<path id="XMLID_80_" class="st1" d="M125.6,286.1c7.9,23.7,32,38.9,53.8,33.8"/>
<g id="XMLID_85_">
	<g id="XMLID_177_">
		<path id="XMLID_163_" d="M98.1,300c7.5-3.4,14.2-7.7,20.7-12.7c4.4-3.5-1.5-11.2-6.1-7.9c-5.4,4-9.2,8.8-11.2,15.2
			c-1.1,3.6,2.6,7.3,6.2,6.2c9.2-2.9,17-9.1,21-18c2.4-5.2-3.4-9.8-7.9-6.1c-13.8,11.7-33.3,13.4-48.3,23.2c-5.4,3.5-0.5,12,5,8.6
			c6.6-4.1,6.7-12.7,12.6-17.7c7.3-6.1,17.3-7.7,26.3-9.4c6.3-1.2,3.6-10.8-2.7-9.6c-9.4,1.8-19.3,3.8-27.3,9.4
			c-3.3,2.3-6.3,5.1-8.5,8.5c-1.9,2.8-2.6,8.5-5.4,10.3c1.7,2.9,3.4,5.8,5,8.6c15.9-10.3,35.7-12.3,50.4-24.8c-2.6-2-5.2-4-7.9-6.1
			c-3,6.6-8.1,11.2-15.1,13.4c2.1,2.1,4.1,4.1,6.2,6.2c1.2-3.8,3.4-6.9,6.6-9.3c-2-2.6-4-5.2-6.1-7.9c-5.7,4.5-12,8.1-18.7,11.2
			C87.2,294,92.2,302.6,98.1,300L98.1,300z"/>
	</g>
</g>
<g id="XMLID_86_">
	<g id="XMLID_171_">
		<path id="XMLID_157_" d="M101.8,287.9c-1.7,1.6-3.4,3.1-5.4,4.5c-1.1,0.8-3.6,3-5,3c-1.4,0-1-0.4-1.8-2.4c-0.5-1.3-1.9-3.7-1.7-5
			c-0.5,1.2-1,2.4-1.5,3.5c-1,0.5-1,0.5,0.2,0.1c0.9-0.3,1.8-0.6,2.7-0.8c1.8-0.6,3.6-1.1,5.4-1.7c3.6-1.1,7.1-2.2,10.7-3.3
			c-2.1-1.6-4.2-3.2-6.3-4.8c0,5.3,3.7,9.8,8.9,10.9c2.6,0.5,5,0.2,7.3-1.1c2.1-1.2,3.8-3.8,6.2-4.4c-1.9-2.4-3.8-4.9-5.6-7.3
			c-1.4,2.2-2.8,4.5-4.3,6.7c-2,3.1,0.6,7.7,4.3,7.5c6.4-0.3,12.3-3.4,15-9.4c1.9-4.1-2.3-10-6.8-6.8c-3.4,2.4-5.7,5.3-7,9.3
			c-1.6,5.1,4.8,7.9,8.4,4.9c3.2-2.8,6.4-5.6,9.7-8.4c-2.4-2.4-4.7-4.7-7.1-7.1c-3.1,3.4-6.3,6.6-9.8,9.5c2.8,1.6,5.6,3.2,8.4,4.9
			c0.9-3.5,1.2-6.9,0.8-10.5c-0.7-6.3-10.7-6.4-10,0c0.3,2.8,0.2,5.2-0.5,7.9c-1.3,5.1,4.7,8,8.4,4.9c3.5-3,6.8-6.1,9.8-9.5
			c4.3-4.8-2.2-11.3-7.1-7.1c-3.2,2.8-6.4,5.6-9.7,8.4c2.8,1.6,5.6,3.2,8.4,4.9c0.5-1.4,1.1-2.4,2.4-3.3c-2.3-2.3-4.6-4.6-6.8-6.8
			c-1.3,2.8-3.3,4.3-6.4,4.5c1.4,2.5,2.9,5,4.3,7.5c1.4-2.2,2.8-4.5,4.3-6.7c2.4-3.8-1.6-8.3-5.6-7.3c-2.3,0.6-4,1.7-5.8,3.1
			c-0.7,0.5-4,3.9-4,1c0-3.2-3.2-5.8-6.3-4.8c-3.9,1.2-7.7,2.4-11.6,3.6c-3,0.9-6.7,1.6-9.5,3.1c-6.1,3.3-3,9.4-1.1,14.4
			c2,5.1,5.2,9.2,11.3,8.5c6.3-0.8,12.5-6.5,17-10.7C113.6,290.5,106.5,283.5,101.8,287.9L101.8,287.9z"/>
	</g>
</g>
<g id="XMLID_89_">
	<g id="XMLID_165_">
		<path id="XMLID_151_" d="M120.5,286.5c-1.6,1-3,2.3-3.8,4c-0.6,1.2-0.9,2.6-0.5,3.9c0.3,1.2,1.2,2.4,2.3,3
			c1.2,0.6,2.6,0.9,3.9,0.5c1.2-0.4,2.4-1.1,3-2.3c0.2-0.3,0.3-0.5,0.5-0.8c-0.3,0.3-0.5,0.7-0.8,1c0.3-0.4,0.6-0.7,1-1
			c-0.3,0.3-0.7,0.5-1,0.8c0.2-0.1,0.3-0.2,0.5-0.4c1.1-0.7,2-1.7,2.3-3c0.3-1.2,0.2-2.8-0.5-3.9c-0.7-1.1-1.7-2-3-2.3
			C123.1,285.7,121.7,285.8,120.5,286.5L120.5,286.5z"/>
	</g>
</g>
<g id="XMLID_90_">
	<g id="XMLID_159_">
		<path id="XMLID_145_" d="M130.1,287.2c1.5,3.3,3.7,5.9,6.5,8.2c4.4,3.6,10.4-0.8,7.9-6.1c-1-2-5.3-9.4-3.8-11.7
			c-1,0.8-2,1.5-3,2.3c-2.2,0.4,2.3,2,3.2,2.6c1.9,1.2,3.6,2.7,5.2,4.3c1.5,1.5,3,3.1,4.4,4.7c0.8,1,3.2,3,3.5,4.2
			c0.4-1.6,0.9-3.2,1.3-4.9c-1.6,1.8-5.6-0.4-7.2-1.1c-4.4-2-9.4,2.2-6.8,6.8c4.3,7.8,15.1,11.9,22.7,15.6c4.1,2,8.9,4.7,13.5,5.4
			c5.1,0.8,6.9-3.4,11.4-4.2c4.8-0.8,4.2-6.8,1.2-9.1c-9.1-7-19.4-12.7-27.8-20.5c-4.7-4.4-11.8,2.7-7.1,7.1
			c9.1,8.4,20,14.6,29.8,22.1c0.4-3,0.8-6.1,1.2-9.1c-1.7,0.3-3.4,0.8-5,1.7c-0.7,0.4-2.3,2.3-3.1,2.4c0.8-0.1-3.7-1.8-4.3-2
			c-1.9-0.8-3.8-1.7-5.6-2.6c-3.4-1.7-6.7-3.6-10-5.4c-3.1-1.7-6.6-3.1-8.4-6.3c-2.3,2.3-4.6,4.6-6.8,6.8c5.6,2.5,18.1,6.3,20.6-2.6
			c1-3.6-1.9-6.4-3.9-8.8c-2.6-3.1-5.2-6.1-8.3-8.8c-3.9-3.5-13.2-11.5-18.5-6.5c-6.1,5.7,0.3,17,3,22.8c2.6-2,5.2-4,7.9-6.1
			c-2.2-1.8-3.7-3.6-4.9-6.2C136,276.4,127.4,281.5,130.1,287.2L130.1,287.2z"/>
	</g>
</g>
<g id="XMLID_91_">
	<g id="XMLID_153_">
		<path id="XMLID_140_" d="M133.8,270c-4.1-5.4-5.3-12.1-8.8-18c-4-6.7-8-13.3-12.1-20c-3.3-5.5-12-0.5-8.6,5
			c4,6.6,8.1,13.3,12.1,20c3.5,5.9,4.6,12.4,8.8,18C129,280.1,137.7,275.1,133.8,270L133.8,270z"/>
	</g>
</g>
<g id="XMLID_93_">
	<g id="XMLID_147_">
		<path id="XMLID_139_" d="M82.2,223.6c0.6,2.4,1.6,3.5,3.6,4.8c3.8,2.7,8.2-1.7,7.3-5.6c-0.9-4.2-3.3-8-7.8-8.7c0,3.2,0,6.4,0,9.6
			c2.1-0.4,3.9-1.3,5.8-2c1-0.4,2.1-0.7,3.2-0.9c-0.5-1-1-0.8-1.5,0.6c-2.4,2.5-2.3,7.8-1.3,10.9c1.1,3.3,3.8,6.2,7.6,5.5
			c1.6-0.3,7.5-5.2,6.6-6.1c-0.5-1.2-1-2.4-1.5-3.5c0,0.3,0,0.7,0,1c2.8-1.2,5.7-2.4,8.5-3.5c-1.1-1.1-2.1-2.1-3.4-2.9
			c-2.1-1.1-4.3-0.7-6.1,0.8c-5.8,5.1-5.3,15.3-0.6,20.8c2.6,3,4.8,5.2,6.9,8.7c2,3.5,4.5,5.9,8.4,6.9c3.5,0.8,7.5-2.4,6.2-6.2
			c-2.5-7-4.2-14.2-5.2-21.6c-3,1.3-6.1,2.6-9.1,3.9c1.6,3.4,4.4,5.4,7.2,7.8c3,2.5,5.1,5.8,7.5,8.9c3.2,4,3.4,6.9,4.2,11.8
			c0.5,3,2,5.9,5.3,6.4c3.2,0.5,6.3-1.3,6.3-4.8c0-2.6,0.2-5.4,0-8c0.3-2.1,0.2-2.6-0.2-1.5c0.9-0.3,1.9-0.7,2.8-1
			c3.4-1.4,6.2-3.2,8.6-6.1c6.1-7.5,11.3-15.9,16.9-23.8c-3.1-0.8-6.2-1.7-9.3-2.5c0.1,3.6-3.4,7.6-5.5,10.3
			c-2.6,3.2-4.8,6.1-6.3,9.9c-1.5,3.6-2.4,7.4-4.5,10.8c-2,3.3-4.1,6.4-5.2,10.2c-1.7,6.2,7.9,8.9,9.6,2.7c1.2-4.2,4.3-7.4,6.1-11.3
			c1.7-3.7,2.5-7.8,4.5-11.4c3.9-6.8,11.6-12.5,11.3-21.1c-0.2-5.2-6.5-6.5-9.3-2.5c-3.2,4.6-6.4,9.1-9.7,13.7
			c-2.7,3.9-5.3,9.3-9.7,11.5c-3.2,1.6-7,1.9-9,5.3c-2.3,4-1.1,10.5-1.2,14.9c2.1-1.6,4.2-3.2,6.3-4.8c1.7,2.9,2.3,3.2,1.8,0.7
			c-0.1-1-0.2-2-0.3-3c-0.2-1.6-0.5-3.2-1.1-4.7c-1.2-3.3-3.3-5.9-5.5-8.6c-2.1-2.7-3.9-5.7-6.4-8c-2.3-2.2-5.2-3.6-6.7-6.6
			c-2.7-5.6-9.8-1.2-9.1,3.9c1,7.4,2.7,14.6,5.2,21.6c2.1-2.1,4.1-4.1,6.2-6.2c-2.3-0.6-2.7-3.1-3.8-4.9c-0.9-1.6-2-3-3.3-4.3
			c-2.3-2.5-7.5-6.8-3.2-10.5c-2,0.3-4,0.5-6.1,0.8c0.5,0.4,1,0.8,1.4,1.3c3,3,8.7,0.9,8.5-3.5c-0.2-4.9-4-7.6-8.8-6.9
			c-5.1,0.7-8.2,4-11.1,7.9c1-0.8,2-1.5,3-2.3c-0.3,0.1-0.6,0.2-0.9,0.3c1.6,0.4,3.2,0.9,4.9,1.3c-1.5-1.4,3.1-7.2,3.2-9.4
			c0.2-2.7-1.3-5.3-3.4-7c-6-4.8-12.2-0.3-18.5,1c-4.6,1-4.9,8.9,0,9.6c0.6,0.4,0.9,1,0.8,1.7c2.4-1.9,4.9-3.8,7.3-5.6
			c-0.3-0.2-0.7-0.5-1-0.7c0.8,1,1.5,2,2.3,3c-0.1-0.4-0.2-0.8-0.3-1.1C90.4,214.7,80.8,217.3,82.2,223.6L82.2,223.6z"/>
	</g>
</g>
<g id="XMLID_95_">
	<g id="XMLID_141_">
		<path id="XMLID_128_" d="M155.7,245.4c-2.5,3-5.1,6-7.6,9.1c-3.6,4.3,0.8,10.6,6.1,7.9c8.1-4.2,14.6-14.3,17.7-22.6
			c1.8-4.8,3.3-9.9,4.1-14.9c0.4-2.5,0.3-5.3,1.5-7.6c1.2-2.3,3.3-4.1,5.1-5.9c-2.8-1.2-5.7-2.4-8.5-3.5c0,8.7-0.4,17.4-4.7,25.1
			c3,1.3,6.1,2.6,9.1,3.9c0.8-3.3,2.2-6.1,4.3-8.8c3.8-5.2-4.9-10.2-8.6-5c-2.5,3.4-4.2,7.1-5.3,11.2c-1.4,5.4,6.3,8.9,9.1,3.9
			c5.2-9.3,6-19.7,6-30.2c0-4.4-5.4-6.5-8.5-3.5c-3,2.9-6,5.9-7.6,9.8c-1.9,4.5-1.8,9.8-3.1,14.6c-1.3,4.9-2.7,9.9-5.5,14.2
			c-2.5,3.8-6.1,8.7-10.2,10.8c2,2.6,4,5.2,6.1,7.9c2.5-3,5.1-6,7.6-9.1C166.9,247.6,159.9,240.5,155.7,245.4L155.7,245.4z"/>
	</g>
</g>
<g id="XMLID_26_">
	<g id="XMLID_133_">
		<path id="XMLID_120_" d="M174.4,213.2c0.3,4.3,0.2,8.6-0.4,12.8c-0.3,2.7,2.5,5,5,5c3,0,4.7-2.3,5-5c0.5-4.3,0.7-8.5,0.4-12.8
			c-0.2-2.7-2.2-5-5-5C176.9,208.2,174.2,210.5,174.4,213.2L174.4,213.2z"/>
	</g>
</g>
<g id="XMLID_62_">
	<g id="XMLID_124_">
		<path id="XMLID_114_" d="M175.4,211.2c0.6,3.2,1.7,6.9,1.5,10.2c-0.2,3.2-2.1,6.6-3.4,9.5c-2.6,5.8,6,10.9,8.6,5
			c1.9-4.2,4.1-8.6,4.6-13.2c0.5-4.6-1-9.6-1.8-14.2C184,202.2,174.3,204.9,175.4,211.2L175.4,211.2z"/>
	</g>
</g>
<g id="XMLID_67_">
	<g id="XMLID_116_">
		<path id="XMLID_108_" d="M132,365.8c-2.2-15.3,0.3-30.6,3.3-45.6c3-14.9,6.1-29.7,9.2-44.6c1.3-6.3-8.3-9-9.6-2.7
			c-3.3,16.1-6.8,32.3-9.9,48.4c-3,15.6-4.9,31.2-2.6,47.1C123.3,374.8,132.9,372.1,132,365.8L132,365.8z"/>
	</g>
</g>
<g id="XMLID_136_">
	<g id="XMLID_110_">
		<path id="XMLID_103_" d="M118.9,345.3c-9.5,8.3-25.1,7.4-33.5-1.9c-0.1,0.8-0.2,1.6-0.3,2.4c10.3-7.5,24-8.4,35.1-2.4
			c1.7,0.9,3.2-1.7,1.5-2.6c-12.1-6.5-27.1-5.6-38.2,2.4c-0.8,0.6-1,1.6-0.3,2.4c9.6,10.6,27.1,11.3,37.8,1.9
			C122.5,346.1,120.4,344,118.9,345.3L118.9,345.3z"/>
	</g>
</g>
<g id="XMLID_138_">
	<g id="XMLID_104_">
		<path id="XMLID_102_" d="M91.1,342.3c-1,0-1.3,0-2.3,0.3c-1.6,0.4-1.3,3,0.4,2.9c3.2-0.1,6.4-0.1,9.6-0.2
			c-0.4-0.9-0.7-1.7-1.1-2.6c-1.9,1.5-6.3,1-8.7,1.1c-1.5,0.1-2,1.9-0.8,2.8c4.1,2.9,8.9,4.1,14,3.8c6.1-0.4,10.9-3.6,16.7-5
			c-0.4-0.9-0.8-1.8-1.2-2.7c-4,1.8-8,3.6-11.9,5.4c-1.8,0.8-0.2,3.3,1.5,2.6c2.7-1.2,5.2-2.5,7.7-4.1c1.2-0.8,0.8-2.8-0.8-2.8
			c-3.3-0.1-6.6-0.2-9.9-0.4c-2.8-0.2-8.1,0.4-10.3-1.5c-0.2,0.8-0.4,1.7-0.7,2.5c4.4-1.6,8.8-2.7,13.4-1.7c3.1,0.7,6.1,1.4,9.3,1.8
			c0-1,0-2,0-3c-2.6,0.3-5.2,0-7.9,0.6c-3.4,0.8-6.7,2.1-9.9,3.2c-1.5,0.5-1.4,3.1,0.4,2.9c2.6-0.2,9.1-0.6,9.8-3.9
			c0.1-0.6-0.1-1.4-0.7-1.7c-1.9-0.9-4.1-0.8-6.2-1c0.1,1,0.3,2,0.4,2.9c1.2-0.6,2.5-0.7,3.8-0.5c1.9,0.1,1.9-2.9,0-3
			c-1.8-0.1-3-0.1-4.6,0.6c-1.6,0.6-1.3,2.8,0.4,2.9c1.2,0.1,3.5,0,4.7,0.6c-0.2-0.6-0.5-1.1-0.7-1.7c-0.2,1-6.5,1.6-6.9,1.7
			c0.1,1,0.3,2,0.4,2.9c2.8-0.9,5.5-2,8.3-2.7c2.9-0.8,5.7-0.5,8.7-0.9c1.9-0.2,1.9-2.8,0-3c-4.1-0.5-8.3-2.4-12.4-2.4
			c-3.8,0-7.6,1-11.1,2.4c-1,0.4-1.6,1.7-0.7,2.5c2.2,1.9,4.6,1.8,7.5,2c5,0.4,9.9,0.6,14.9,0.8c-0.3-0.9-0.5-1.9-0.8-2.8
			c-2.5,1.6-5,2.9-7.7,4.1c0.5,0.9,1,1.7,1.5,2.6c4-1.8,8-3.6,11.9-5.4c1.6-0.7,0.4-3.1-1.2-2.7c-4.4,1.1-8.3,3.5-12.8,4.5
			c-5.5,1.1-10.9,0.4-15.5-2.9c-0.3,0.9-0.5,1.9-0.8,2.8c3.6-0.2,7.8,0.4,10.8-2c1-0.8,0.2-2.6-1.1-2.6c-3.2,0.1-6.4,0.1-9.6,0.2
			c0.1,1,0.3,2,0.4,2.9c0.5-0.1,1-0.1,1.5-0.2C93,345.4,93,342.4,91.1,342.3L91.1,342.3z"/>
	</g>
</g>
<g id="XMLID_61_">
	<g id="XMLID_98_">
		<path id="XMLID_96_" d="M90.6,225.9c3.6,4,7.3,7.9,10.9,11.9c0-0.7,0-1.4,0-2.1c-0.9,0.9-12.6-10.2-14-11.4
			c-1.2-1.1-3.4,0.3-2.4,1.8c4,6,8.2,15,15.2,17.9c1.3,0.5,2.3-1.2,1.7-2.2c-1.4-2.7-3-5.2-4.7-7.7c-0.7-1.1-3-0.9-2.8,0.8
			c0.4,3,1.4,5.4,3.2,7.8c0.8,1.1,2.6,0.1,2.6-1.1c0-4.3,0.1-8.5,0.1-12.8c0-1.7-0.4-3.9,0.1-5.5c1.6-5.5,5.7-2.6,7.7-0.5
			c0.4-0.9,0.7-1.7,1.1-2.6c-1.6-0.1-3.1-0.6-4.4-1.5c-1-0.6-2.7,0.4-2.2,1.7c0.5,1.2,1,2.5,1.5,3.7c0.3-0.6,0.7-1.2,1-1.8
			c-0.9,0-1.8-0.1-2.7-0.1c-0.1,0.9-0.2,1.8-0.4,2.7c3.9-0.8,1.6-5.5-0.5-7.1c-4.1-3-8.9-1.3-11.5,2.6c0.8-0.1,1.6-0.2,2.4-0.3
			c-2.9-3.5-11.7-7.3-15.5-3.6c-1.4,1.3,0.7,3.5,2.1,2.1c2.5-2.4,9.8,1.9,11.3,3.6c0.7,0.8,1.9,0.4,2.4-0.3c2.8-3.6,5.7-3.6,8.6,0
			c-1.2,0.2-1.5,2.2-0.4,2.7c1.8,0.9,3,1.1,5,0.4c0.7-0.2,1.4-1.1,1-1.8c-0.5-1.2-1-2.5-1.5-3.7c-0.7,0.6-1.5,1.1-2.2,1.7
			c1.9,1.2,3.7,1.7,6,1.9c1.3,0.1,1.9-1.7,1.1-2.6c-2.9-2.9-8.2-6.3-11.6-2.1c-1.6,2-1.3,4.9-1.3,7.2c-0.1,5.2-0.1,10.5-0.1,15.7
			c0.9-0.4,1.7-0.7,2.6-1.1c-1.4-1.6-2.2-3.5-2.4-5.7c-0.9,0.3-1.9,0.5-2.8,0.8c1.7,2.5,3.3,5.1,4.7,7.7c0.6-0.7,1.1-1.5,1.7-2.2
			c-5.8-2.3-10.1-11.6-13.4-16.5c-0.8,0.6-1.6,1.2-2.4,1.8c4.1,3.7,8.2,7.9,12.7,11.1c1.9,1.3,3.8,2,5.5,0.3c0.6-0.6,0.5-1.5,0-2.1
			c-3.6-4-7.3-7.9-10.9-11.9C91.4,222.3,89.3,224.5,90.6,225.9L90.6,225.9z"/>
	</g>
</g>
<g id="XMLID_68_">
	<g id="XMLID_70_">
		<path id="XMLID_65_" d="M97.9,209.6c-0.7-0.2-1.3-0.3-2-0.5c-0.8-0.2-1.7,0.2-1.8,1c-0.2,0.8,0.2,1.6,1,1.8c0.7,0.2,1.3,0.3,2,0.5
			c0.8,0.2,1.7-0.2,1.8-1C99.1,210.7,98.7,209.8,97.9,209.6L97.9,209.6z"/>
	</g>
</g>
<g id="XMLID_87_">
	<g id="XMLID_59_">
		<path id="XMLID_57_" d="M95,284.5c-1.8,0-3.6,0.1-5.4,0.1c0.4,3.3,0.9,6.5,1.3,9.8c3.1-0.9,6.2-1.6,9.3-2.1
			c-1.3-3-2.6-6.1-3.9-9.1c-2.4,1.1-4.9,1.9-7.5,2.7c-5.4,1.7-4.4,9.7,1.3,9.8c3.1,0.1,4.8,2.2,8.3,1.5c0.6-0.1,1.2-0.3,1.8-0.7
			c2.6-0.8,2-2.4-1.8-4.9c-0.7,0.2-2.4,2.7-3.1,3.2c-5.9,4.7-13.8,5.5-21,6.2c-6.4,0.6-6.4,10.6,0,10c11.7-1.1,25.2-3.2,32.3-13.8
			c2.7-4,2-9.6-3.2-11.1c-1.1-0.3-2.5-0.3-3.7-0.1c-1.1,0.2-2.4,1.2-3.4,1.3c-1.3,0-4.2-1.5-6.2-1.6c0.4,3.3,0.9,6.5,1.3,9.8
			c3.4-1,6.6-2.3,9.9-3.7c5.6-2.5,1.2-9.9-3.9-9.1c-3.2,0.5-6.2,1.2-9.3,2.1c-5.3,1.6-4.4,9.9,1.3,9.8c1.8,0,3.6-0.1,5.4-0.1
			C101.4,294.4,101.4,284.4,95,284.5L95,284.5z"/>
	</g>
</g>
<g id="XMLID_88_">
	<g id="XMLID_53_">
		<path id="XMLID_51_" d="M78.6,306.9c3-5.4,5.8-11,8.4-16.6c2.4-5.1-3.4-9.9-7.9-6.1c-1,0.9-2.1,1.8-3.1,2.7
			c-4.9,4.2,2.2,11.3,7.1,7.1c1-0.9,2.1-1.8,3.1-2.7c-2.6-2-5.2-4-7.9-6.1c-2.6,5.6-5.4,11.2-8.4,16.6
			C66.8,307.5,75.4,312.5,78.6,306.9L78.6,306.9z"/>
	</g>
</g>
<g id="XMLID_92_">
	<g id="XMLID_47_">
		<path id="XMLID_42_" d="M155,287.4c-2.7,0.3-7.9,0-9.2-3.1c-0.2,1.3-0.3,2.6-0.5,3.9c-4.1-0.7-5.6-0.1-4.5,1.8
			c0.2,0.6,0.5,1.2,0.9,1.8c1-2.4,2-4.9,3-7.3c-2.8,0.4-7.1-3.9-9.7-4.9c-3.3-1.2-6.7-1.3-10.1-0.3c-7.6,2.2-12.1,8.9-16.7,14.8
			c-2.6,3.5,1.7,8.7,5.6,7.3c7.5-2.6,21-7.2,21.9-16.7c0.4-4-1.5-7.6-5.2-9.2c0.1,0-3.1-0.8-2.9-0.6c-0.3-0.3-0.3-1.8-0.3-2.9
			c0-2.9,0.3-5.7,0.5-8.6c0.2-2.1-1.7-4.3-3.7-4.8c-2.4-0.6-3.9-0.4-6,0.8c-4.3,2.2-2.4,9.7,2.5,9.3c12-1,21.9-9.5,31.6-16
			c-2.5-1.4-5-2.9-7.5-4.3c-0.5,4.1-1.9,8-3.8,11.7c-2.1,4,2.5,10,6.8,6.8c10-7.3,14.8-18.2,19.3-29.5c1.6-4.1-3.9-7.9-7.3-5.6
			c-5.6,3.6-11.3,6.7-17.4,9.3c2.4,1,4.9,2,7.3,3c0,0.5-0.1,1-0.1,1.5c4.7-4.4-2.4-11.5-7.1-7.1c-2.6,2.4-3,4.9-2.4,8.3
			c0.6,3.5,4.7,4.1,7.3,3c6.1-2.6,11.9-5.7,17.4-9.3c-2.4-1.9-4.9-3.8-7.3-5.6c-3.3,8.5-7,17.9-14.7,23.5c2.3,2.3,4.6,4.6,6.8,6.8
			c2.8-5.4,4.3-10.8,5.1-16.8c0.5-3.8-4.6-6.2-7.5-4.3c-4.3,2.8-8.6,5.7-12.9,8.5c-4.2,2.7-8.6,5.6-13.7,6.1
			c0.8,3.1,1.7,6.2,2.5,9.3c0.3-0.2,0.7-0.4,1-0.5c-1.3,0.2-2.6,0.3-3.9,0.5c0.4,0.1,0.8,0.2,1.1,0.3c-1.2-1.6-2.4-3.2-3.7-4.8
			c-0.5,6-2.5,15.5,3.5,19.6c1.2,0.8,2.6,0.8,3.8,1.4c1.9,0.2,1.9,0.4-0.2,0.4c-0.9,0.7-1.9,1.4-2.9,1.9c-3.4,2.1-7.1,3.7-10.8,5
			c1.9,2.4,3.8,4.9,5.6,7.3c3.6-4.7,8.6-12.8,15.5-9.8c5.5,2.4,8.5,5.8,15,4.8c3.3-0.5,4.4-4.8,3-7.3c-1.9-3.5-3-6.8-7.6-7.1
			c-3.4-0.2-6.8,2.4-6.8,6c0.1,8.4,12.3,12.5,19,11.8C161.3,296.7,161.4,286.7,155,287.4L155,287.4z"/>
	</g>
</g>
<g id="XMLID_94_">
	<g id="XMLID_46_">
		<path id="XMLID_41_" d="M162.3,297.4c1.4,5.5,5.1,9.1,10.3,11c-0.7-2.8-1.5-5.6-2.2-8.4c-0.2,0.2-0.4,0.4-0.6,0.7
			c1.2-0.5,2.4-1,3.5-1.5c-2.3,0.2-5.2-3.6-6.3-5.2c-2.3,2.3-4.6,4.6-6.8,6.8c3.1,1.3,7.9,2.9,10.3,5.6c2.4,2.7,2.7,7,4.4,10.1
			c1-2.4,2-4.9,3-7.3c-0.8,0.1-1.7,0.1-2.5,0.2c1,2.4,2,4.9,3,7.3c1.5-2.7,4.9-2.9,7.5-3.7c3-0.9,5.3-2.2,7.7-4.1
			c5.1-4-2.1-11-7.1-7.1c-2.8,2.2-7,2.2-10.1,3.7c-2.9,1.3-5.1,3.3-6.7,6.1c-1.5,2.6-0.3,6.8,3,7.3c2.8,0.5,5.1,0.5,7.9-0.2
			c3.2-0.8,4.5-4.6,3-7.3c-2.2-4.1-2.5-8.7-5.9-12.1c-3.3-3.3-8.1-5.3-12.3-7.1c-4-1.7-10.1,2.2-6.8,6.8c3.4,4.8,13.2,14.9,19.1,8
			c2.5-3,1.5-7-2.2-8.4c-2-0.7-2.8-2.1-3.3-4.1C170.4,288.5,160.7,291.1,162.3,297.4L162.3,297.4z"/>
	</g>
</g>
<g id="XMLID_193_">
	<g id="XMLID_45_">
		<path id="XMLID_39_" d="M101.2,340.9c-2.2,0.2-4,0.1-6.1-0.5c-0.4,3.3-0.9,6.5-1.3,9.8c8.8-0.5,17.6-0.8,26.3-2.1
			c6.3-0.9,3.6-10.5-2.7-9.6c-7.8,1.1-15.7,1.3-23.6,1.7c-5.5,0.3-6.9,8.2-1.3,9.8c2.9,0.8,5.7,1.1,8.7,0.8
			C107.5,350.3,107.6,340.3,101.2,340.9L101.2,340.9z"/>
	</g>
</g>
<g id="XMLID_199_">
	<g id="XMLID_44_">
		<path id="XMLID_38_" d="M112.5,341.4c-2.5,0-5.1,0-7.6,0.1c-2.6,0.2-5,0.8-7.5,0c-6.1-2.1-8.7,7.6-2.7,9.6c3.1,1,5.9,0.7,9,0.5
			c2.9-0.2,5.9-0.2,8.8-0.2C118.9,351.4,118.9,341.4,112.5,341.4L112.5,341.4z"/>
	</g>
</g>
<g id="XMLID_200_">
	<g id="XMLID_43_">
		<path id="XMLID_7_" d="M90.4,344c-0.8,0.2-1.7-0.6-2.3-1.1c-0.4,0.9-0.7,1.7-1.1,2.6c0.6,0.1,1.1,0.2,1.7,0.5
			c0.7,0.3,1.7-0.3,1.8-1c0.2-0.9-0.3-1.5-1-1.8c-0.8-0.3-1.6-0.5-2.5-0.6c-1.2-0.1-2,1.8-1.1,2.6c1.5,1.3,3.2,2.3,5.2,1.9
			C93.1,346.5,92.3,343.6,90.4,344L90.4,344z"/>
	</g>
</g>
<g id="XMLID_206_">
	<g id="XMLID_52_">
		<path id="XMLID_6_" d="M110.1,340.1c-0.9-0.8-1.8-1.6-2.9-2.2c0,0.9,0,1.7,0,2.6c0.7-0.4,1.4-0.5,2.2-0.2c0.8,0.3,1.6-0.3,1.8-1
			c0.2-0.8-0.3-1.6-1-1.8c-1.5-0.5-3.2-0.3-4.5,0.5c-1,0.6-1,2,0,2.6c0.8,0.5,1.6,1.1,2.3,1.7C109.3,343.6,111.5,341.5,110.1,340.1
			L110.1,340.1z"/>
	</g>
</g>
<g id="XMLID_221_">
	<g id="XMLID_109_">
		<path id="XMLID_5_" d="M100.6,254.5c-3.4,0.8-18.3,3.4-15.4,9.8c1.2,2.6,5.1,4.7,7.4,6.1c3.6,2.2,7.5,3.9,11.5,5.2
			c1.8,0.6,2.6-2.3,0.8-2.9c-5-1.5-9.6-3.8-13.8-6.9c-1.5-1.1-4-2.2-1.6-4.4c0.9-0.9,3.1-1.3,4.3-1.7c2.5-0.9,5.1-1.6,7.7-2.2
			C103.3,256.9,102.5,254.1,100.6,254.5L100.6,254.5z"/>
	</g>
</g>
<g id="XMLID_227_">
	<g id="XMLID_146_">
		<path id="XMLID_4_" d="M132.5,231.1c1.5-2.8,3.5-6.2,6.1-8.1c1.9-1.4,2.3,0,3.3,1.7c0.9,1.7,1.9,3.4,2.8,5.1
			c0.9,1.7,3.5,0.2,2.6-1.5c-1.4-2.5-2.6-5-4.1-7.4c-0.9-1.4-2.1-2.4-3.8-1.9c-2.1,0.5-3.8,2.9-5.2,4.4c-1.6,1.9-3.1,4-4.3,6.3
			C129,231.3,131.6,232.8,132.5,231.1L132.5,231.1z"/>
	</g>
</g>
<g id="XMLID_228_">
	<g id="XMLID_176_">
		<path id="XMLID_3_" d="M122,299.7c1.3,4.6,2.3,9.5,4,14.1c0.7,1.9,1.3,3.3,3.3,3.9c2.8,0.8,6.7-0.8,9.3-1.7
			c3.8-1.3,7.3-3.1,10.7-5.1c1.6-1,0.1-3.6-1.5-2.6c-3.7,2.3-10.1,6.4-14.7,6.2c-4.6-0.2-4.7-3.2-5.7-6.7c-0.8-2.9-1.7-5.9-2.5-8.8
			C124.3,297.1,121.4,297.9,122,299.7L122,299.7z"/>
	</g>
</g>
<g id="XMLID_234_">
	<g id="XMLID_196_">
		<path id="XMLID_2_" d="M170,255.9c2.6-0.9,8,4.5,9.6,5.8c2.2,1.8,5.5,3.9,7,6.2c1.3,2,0.1,2.2-1.6,3.1c-1.3,0.7-2.6,1.3-3.9,1.9
			c-3.6,1.6-7.3,2.9-11.1,4.1c-1.8,0.6-1.1,3.5,0.8,2.9c5.1-1.6,10.1-3.5,14.9-5.8c2.7-1.3,6.3-2.7,4.8-6.1
			c-0.8-1.9-3.4-3.6-4.9-4.9c-2-1.8-4-3.4-6.1-5c-2.8-2.2-6.5-6.2-10.4-4.9C167.4,253.6,168.2,256.5,170,255.9L170,255.9z"/>
	</g>
</g>
<path id="XMLID_235_" class="st2" d="M298.7,367.1H85.3c-7.1,0-12.8-5.7-12.8-12.8V125.9c0-7.1,5.7-12.8,12.8-12.8h213.4
	c7.1,0,12.8,5.7,12.8,12.8v228.4C311.5,361.4,305.8,367.1,298.7,367.1z"/>
</svg>
