<?xml version="1.0" encoding="utf-8"?>
<!-- Generator: Adobe Illustrator 19.0.0, SVG Export Plug-In . SVG Version: 6.00 Build 0)  -->
<svg version="1.1" id="Layer_1" xmlns="http://www.w3.org/2000/svg" xmlns:xlink="http://www.w3.org/1999/xlink" x="0px" y="0px"
	 viewBox="0 0 600 680" style="enable-background:new 0 0 600 680;" xml:space="preserve">
<style type="text/css">
	.st0{fill:#0000FF;}
	.st1{opacity:0.61;fill:#39B54A;}
	.st2{fill:#39B54A;}
	.st3{fill:#009245;}
	.st4{fill:none;stroke:#F2F2F2;stroke-width:25;stroke-miterlimit:10;}
	.st5{stroke:#000000;stroke-miterlimit:10;}
	.st6{fill:#FF615E;stroke:#FF0000;stroke-width:8;stroke-miterlimit:10;}
	.st7{fill:#FC635E;stroke:#FF0000;stroke-width:8;stroke-miterlimit:10;}
	.st8{fill:#0327DD;}
	.st9{fill:#FD6260;stroke:#FF0000;stroke-width:8;stroke-miterlimit:10;}
	.st10{fill:#FF5F60;}
	.st11{fill:#FF6160;}
	.st12{fill:#FC6260;}
	.st13{fill:#F66562;}
	.st14{fill:#FF5E62;}
	.st15{fill:#FD6162;}
	.st16{opacity:0.8;fill:#FFFFFF;}
	.st17{opacity:0.75;fill:#FFFFFF;}
	.st18{fill:#F2F2F2;}
	.st19{fill:#FD665F;}
	.st20{fill:none;stroke:#FF0000;stroke-width:12;stroke-miterlimit:10;}
	.st21{fill-opacity:0.18;}
	.st22{fill:#FFFFFF;}
	.st23{fill:#F9F9F9;}
</style>
<g id="XMLID_28_">
	<g id="XMLID_302_">
		<path class="st0" d="M108.2,468.9c2.9-85.8,5.8-171.6,8.7-257.4c0.8-24.2,1.6-48.4,2.4-72.6c-7.4,13-14.9,25.9-22.3,38.9
			c2.1-1,4.2-2,6.3-2.9c-3.6,1.5-7.2,3-10.7,4.5c11.8-4.9,24.2-7.8,36.8-9.5c-4,0.5-8,1.1-12,1.6c24.2-3.1,48.9-2.5,73.3-2.7
			c26.9-0.3,53.8-0.6,80.7-0.9c53.4-0.6,106.9-1.2,160.3-1.8c14.6-0.2,29.2-0.3,43.8-0.5c13.6-0.1,27.9-1.5,41.4,0.3
			c-4-0.5-8-1.1-12-1.6c2.9,0.5,5.7,1.2,8.4,2.3c-3.6-1.5-7.2-3-10.7-4.5c1.8,0.8,3.4,1.8,4.9,3c-3-2.3-6.1-4.7-9.1-7
			c1.1,1,2.1,1.9,3,3c-2.3-3-4.7-6.1-7-9.1c1.1,1.5,2.1,3,2.9,4.7c-1.5-3.6-3-7.2-4.5-10.7c1.1,2.6,1.8,5.3,2.2,8.1
			c-0.5-4-1.1-8-1.6-12c1.7,14.5-1.9,29.7-3.3,44.1c-1.7,17.3-2.7,34.6-3.1,51.9c-0.9,34.4,0.7,68.7,4.6,102.9c30,0,60,0,90,0
			c-3-24.6-2.9-49.4,0.3-73.9c-0.5,4-1.1,8-1.6,12c1.1-8.1,2.7-16.2,4.3-24.2c2.9-15,4.2-28.2,1.1-43.2c-2.5-12.2-9.8-24.7-19-33.1
			c-7.3-6.7-15.5-12-25.1-14.7c-10.7-3-19-2.8-29.8-0.9c-21.9,3.9-39.9,24.5-49.3,43.6c-7.4,15-12,31-18.5,46.3
			c1.5-3.6,3-7.2,4.5-10.7c-2.9,6.8-6.4,13.2-10.9,19.1c2.3-3,4.7-6.1,7-9.1c-4.8,6.2-10.4,11.6-16.6,16.5c3-2.3,6.1-4.7,9.1-7
			c-14.5,11.1-31.1,18.7-47.8,25.7c3.6-1.5,7.2-3,10.7-4.5c-26.8,11.3-53.5,21.9-78,37.8c-26.3,17.1-50.4,37.3-75.2,56.5
			c3-2.3,6.1-4.7,9.1-7c-23.7,18.3-48.2,35.4-75.9,47.2c3.6-1.5,7.2-3,10.7-4.5c-14.7,6.1-29.9,10.7-45.6,12.9c4-0.5,8-1.1,12-1.6
			c-11.1,1.4-22.1,1.5-33.2,0.1c4,0.5,8,1.1,12,1.6c-7.2-1-14.4-2.4-21.1-5.1c3.6,1.5,7.2,3,10.7,4.5c-2-0.9-3.9-1.9-5.7-3.3
			c3,2.3,6.1,4.7,9.1,7c-1.2-1-2.2-2-3.2-3.2c2.3,3,4.7,6.1,7,9.1c-1.1-1.6-2-3.2-2.8-5c1.5,3.6,3,7.2,4.5,10.7
			c-1.1-2.8-1.7-5.6-2.2-8.5c0.5,4,1.1,8,1.6,12c-2.1-17.2-1.2-35.3-0.5-52.6c0.7-18.3,2.4-36.5,4.7-54.6c-0.5,4-1.1,8-1.6,12
			c6.6-49.3,18.8-98.6,38.1-144.6c-1.5,3.6-3,7.2-4.5,10.7c1.1-2.5,2.3-4.8,3.8-7c-2.3,3-4.7,6.1-7,9.1c1-1.3,2-2.3,3.3-3.4
			c-3,2.3-6.1,4.7-9.1,7c1.3-0.9,2.6-1.6,4-2.3c-3.6,1.5-7.2,3-10.7,4.5c2-0.7,4-1.2,6.1-1.6c-4,0.5-8,1.1-12,1.6
			c9.5-1.2,19.3-1,28.8-1.2c10.3-0.3,20.5-0.5,30.8-0.6c20.2-0.3,40.4-0.3,60.6,0c40.7,0.5,81.4,2.1,122,4.7
			c22.6,1.5,45.4,2.6,67.9,5.4c-4-0.5-8-1.1-12-1.6c3,0.4,5.9,1.1,8.7,2.3c-3.6-1.5-7.2-3-10.7-4.5c1.4,0.7,2.5,1.4,3.8,2.3
			c-3-2.3-6.1-4.7-9.1-7c1.1,0.9,1.9,1.9,2.8,3c-2.3-3-4.7-6.1-7-9.1c0.8,1.2,1.4,2.3,2,3.5c-1.5-3.6-3-7.2-4.5-10.7
			c0.9,2.2,1.4,4.4,1.8,6.7c-0.5-4-1.1-8-1.6-12c1.7,12.8-0.4,26.3-1.5,39.1c-1.2,14.5-2.8,29-4.8,43.4c0.5-4,1.1-8,1.6-12
			c-2.2,16-4.8,32-7.8,47.9c28.9,0,57.9,0,86.8,0c-0.4-2.9-1.1-5.5-2.2-8.2c-2.3-5.9-4.6-12.3-8.3-17.6c-8-11.6-15.9-19.2-27.3-27.4
			c-7.9-5.6-17.5-9.4-26.6-12.3c-10.6-3.4-22-4.5-33-5.5c-16-1.5-32.2-1.5-48.2-1.8c-16.6-0.3-33.2-0.2-49.7,0.8
			c-35.3,2.3-70.1,9.1-103.8,19.5c-15.1,4.7-30.1,9.9-44.9,15.5c-16.5,6.2-33.3,12.8-48.5,22c-19.1,11.6-35.4,26.6-47.4,45.4
			c-5.8,9.1-10.4,19.6-13.2,30c-2.8,10.4-4.4,22-3.3,32.8c0.5,4,1.1,8,1.6,12c1.4,5.9,4.1,11,8.1,15.3c5.8,7.5,13.9,13.9,23.4,16.1
			c56.5,13.1,112.6-3.4,162.5-30c20.7-11,40.4-23.8,60.5-35.9c19.6-11.8,40-21.5,60.2-32.2c22.8-12.1,45.9-29.7,56.8-53.7
			c6.5-14.4,11.2-29.2,10.6-45.3c-0.7-17.7-5.8-33.8-16.7-47.8c-11.1-14.4-26.6-24.3-44.2-28.9c-13.1-3.4-27-4.1-40.5-4.5
			c-25.8-0.8-51.6-1.1-77.4-1c-26.3,0.1-52.9-0.1-79.1,2.5c-14.9,1.5-30.3,3.3-44.5,8.1c-18,6.1-32.4,14.4-46.8,26.5
			c-12,10.1-15.5,29.3-11.6,43.8c4.1,14.9,16.3,27.6,31.4,31.4c43.7,11.2,89.7,16,134.7,13.2c23.9-1.5,47.9-4.8,71.3-10
			c19.8-4.4,39.1-10.4,58.5-16.2c22.2-6.6,44.5-12.9,67.5-16.1c-4,0.5-8,1.1-12,1.6c6.6-0.9,13.3-1.5,20-1.8
			c11.8-0.5,23.3-4.7,31.8-13.2c7.8-7.8,13.7-20.6,13.2-31.8c-0.5-11.6-4.3-23.7-13.2-31.8c-8.6-7.9-19.8-13.7-31.8-13.2
			c-65.5,2.8-125,32.3-189.4,41.2c4-0.5,8-1.1,12-1.6c-34.8,4.6-69.9,4.7-104.7,0.1c4,0.5,8,1.1,12,1.6c-15.5-2.1-30.8-5.1-46-9
			c6.6,25.1,13.2,50.1,19.9,75.2c0.8-0.7,1.6-1.3,2.4-2c-3,2.3-6.1,4.7-9.1,7c5.4-4.1,11.1-7.4,17.3-10.2c-3.6,1.5-7.2,3-10.7,4.5
			c10.7-4.5,22-7,33.4-8.6c-4,0.5-8,1.1-12,1.6c29.5-3.7,59.8-3.1,89.4-3.2c15.9-0.1,31.7,0.1,47.6,0.4c15,0.3,30.3,0.1,45.3,1.9
			c-4-0.5-8-1.1-12-1.6c5.6,0.8,11,2,16.2,4.1c-3.6-1.5-7.2-3-10.7-4.5c2.8,1.3,5.3,2.7,7.8,4.5c-3-2.3-6.1-4.7-9.1-7
			c2.2,1.8,4.1,3.6,5.9,5.8c-2.3-3-4.7-6.1-7-9.1c1.6,2.1,2.8,4.3,3.9,6.6c-1.5-3.6-3-7.2-4.5-10.7c1.3,3.2,2.2,6.5,2.7,10
			c-0.5-4-1.1-8-1.6-12c0.5,4,0.4,8-0.1,12c0.5-4,1.1-8,1.6-12c-0.7,5-2.1,9.8-4.1,14.5c1.5-3.6,3-7.2,4.5-10.7
			c-1.9,4.2-4.2,8.1-7,11.8c2.3-3,4.7-6.1,7-9.1c-3.9,4.9-8.4,9.1-13.3,13c3-2.3,6.1-4.7,9.1-7c-11.6,8.8-24.7,15.1-37.8,21.5
			c-14.6,7.2-28.8,15.1-42.7,23.5c-28.3,17.1-56,35.4-86.6,48.4c3.6-1.5,7.2-3,10.7-4.5c-17,7.1-34.7,12.5-53,15c4-0.5,8-1.1,12-1.6
			c-12.2,1.5-24.5,1.7-36.7,0.2c4,0.5,8,1.1,12,1.6c-4.1-0.6-8.1-1.3-12.1-2.2c11,14.5,22,28.9,33,43.4c-0.5-4.7-0.4-9.3,0.2-14
			c-0.5,4-1.1,8-1.6,12c0.8-5.2,2.3-10.1,4.3-14.9c-1.5,3.6-3,7.2-4.5,10.7c2.5-5.8,5.7-11.3,9.6-16.4c-2.3,3-4.7,6.1-7,9.1
			c4.6-6,9.9-11.2,15.8-15.9c-3,2.3-6.1,4.7-9.1,7c10.8-8.3,22.8-14.6,35.3-19.9c-3.6,1.5-7.2,3-10.7,4.5
			c40.7-17.1,84-30.9,127.8-36.8c-4,0.5-8,1.1-12,1.6c21.3-2.7,42.7-3.4,64.2-3.2c20.7,0.2,41.8,0,62.3,2.5c-4-0.5-8-1.1-12-1.6
			c7.1,1,14,2.5,20.7,5.2c-3.6-1.5-7.2-3-10.7-4.5c4.5,1.9,8.7,4.3,12.6,7.3c-3-2.3-6.1-4.7-9.1-7c3,2.4,5.7,5.1,8.2,8.2
			c-2.3-3-4.7-6.1-7-9.1c2,2.7,3.6,5.5,5,8.6c-1.5-3.6-3-7.2-4.5-10.7c1,2.7,1.7,5.4,2.2,8.2c1.5,3.6,3,7.2,4.5,10.7
			c2.8,5.2,6.7,9.5,11.6,12.6c7.6,5.9,17.4,10.1,27.3,9.7c8-0.4,15.6-2.4,22.7-6.1c9-4.7,18.8-16.8,20.7-26.9
			c7.4-39.2,12.7-78.9,15.4-118.7c1.7-24.4,0.1-50.1-19-68.1c-7.5-7.2-15.8-11.5-25.5-14.9c-6.8-2.4-14.4-2.8-21.6-3.6
			c-9-1-18-1.6-27-2.3c-74.2-6-148.7-8.5-223.1-7.5c-18.3,0.2-37-0.3-55.2,1.5c-17.5,1.7-35,6.2-47.1,20.1
			c-9.9,11.3-14.9,24.3-20.1,38.2c-12.4,32.7-22,66.5-28.5,100.9c-7.1,37.3-11.4,75.4-12.1,113.5c-0.2,8.7-0.1,17.3,0.1,26
			c0.3,10.5,0.7,21.8,4,31.8c5.4,16.4,16.1,31.7,32.1,39.3c10.3,4.9,20.6,8.2,31.8,9.8c11.2,1.6,22.2,3.1,33.5,2.6
			c11.2-0.4,22.5-2,33.5-4.2c18.9-3.7,37-11,54.4-19.1c32.5-15.1,60.7-37.6,88.8-59.6c6.3-5,12.7-9.9,19-14.9c-3,2.3-6.1,4.7-9.1,7
			c13.8-10.7,27.9-21.1,42.7-30.2c13.8-8.5,28.2-15.5,43.1-21.8c-3.6,1.5-7.2,3-10.7,4.5c15.3-6.4,30.8-12.5,45.8-19.6
			c14.8-7,27.9-15.6,40.6-25.9c12.3-9.9,23.1-22.9,30.3-36.9c7.9-15.3,12.6-31.9,19.2-47.8c-1.5,3.6-3,7.2-4.5,10.7
			c2.6-6,5.6-11.7,9.4-16.9c-2.3,3-4.7,6.1-7,9.1c2.2-2.8,4.6-5.5,7.3-7.8c-3,2.3-6.1,4.7-9.1,7c1.3-1,2.6-1.8,4-2.6
			c-3.6,1.5-7.2,3-10.7,4.5c1.4-0.6,2.6-0.9,4.1-1.1c-4,0.5-8,1.1-12,1.6c0.9-0.1,1.8-0.1,2.6,0.1c-4-0.5-8-1.1-12-1.6
			c1.4,0.2,2.5,0.6,3.8,1c-3.6-1.5-7.2-3-10.7-4.5c1.3,0.6,2.4,1.2,3.5,2c-3-2.3-6.1-4.7-9.1-7c1.5,1.2,2.8,2.4,4,3.9
			c-2.3-3-4.7-6.1-7-9.1c1.2,1.5,2.1,3.1,2.9,4.8c-1.5-3.6-3-7.2-4.5-10.7c0.8,2,1.3,4.1,1.7,6.2c-0.5-4-1.1-8-1.6-12
			c0.4,3.7,0.3,7.3-0.1,11c0.5-4,1.1-8,1.6-12c-1.2,8.7-3.3,17.3-4.7,26c-1.9,12.4-3.6,24.9-4.4,37.5c-1.2,18-0.6,36.1,1.6,54.1
			c-0.2,6.2,1.1,12,3.9,17.3c1.8,5.6,4.9,10.4,9.3,14.5c7.8,7.8,20.6,13.7,31.8,13.2c11.6-0.5,23.7-4.3,31.8-13.2
			c7.5-8.2,14.5-20.2,13.2-31.8c-5.4-46.8-6.3-94.1-2.7-141.1c1.9-24.2,7.7-48.5,2.4-72.6c-3.9-17.7-16.9-35-33.2-42.9
			c-14.8-7.2-30.4-9.3-46.7-9.1c-94.9,1-189.9,2.1-284.8,3.1c-25.4,0.3-51,0-76.4,1.1c-15.4,0.7-30.8,2.4-45.9,5.3
			c-14.9,2.9-29.1,8.4-42.7,15.2c-14.3,7.1-21.8,23.7-22.3,38.9c-2.9,85.8-5.8,171.6-8.7,257.4c-0.8,24.2-1.6,48.4-2.4,72.6
			c-0.8,23.6,21.3,46.1,45,45C88.2,512.8,107.3,494.2,108.2,468.9L108.2,468.9z"/>
	</g>
</g>
<g id="XMLID_171_">
	<path id="XMLID_293_" class="st1" d="M456.2,336.3c-1.6,1.7-1.6,4.6,0,6.3c8.9-4.5,17.8-9,26.7-13.5c1.3-0.7,2.8-1.4,4.3-1
		c1.3,0.4,2.2,1.5,3,2.7c7.5,10.4,15.1,20.8,22.6,31.2c5,6.9,10,13.8,13.6,21.6c7.4,16.1,7.9,34.4,8.2,52c0.8,40,1.6,80,2.4,120
		c0.1,5.6,0.1,11.7-3.2,16.3c-4.5,6.4-13.4,7.5-21.2,8c-145.5,9.2-291.4,11.5-437.1,6.7c-2.5-0.1-5.1-0.2-7.2-1.5
		c-3.3-2-4.5-6.1-5.4-9.9c-3.7-15.2-7.3-30.3-11-45.5c-0.4-1.8-0.8-3.9,0.5-5.2c0.9-0.9,2.2-1.1,3.5-1.3c11.2-1.5,22.3-2.9,33.5-4.4
		c11-1.4,22.2-2.9,33.2-1.3c11.1,1.6,21.5,6.1,32.4,8.3c11.8,2.5,24,2.3,36.1,2c42.1-1,84.8-3.2,124.4-17.4
		c-4.2,3.5-8.3,7-12.5,10.5c4.8-6.3,11.2-11.4,18.3-14.8c-5.2,1.2-10.5,2.5-15.7,3.7c13.3-7.4,29.4-7.9,44.4-6s29.8,6.2,44.9,8
		c28.6,3.3,58.1-2.6,83.1-16.8c5-2.8,10.5-7.6,9.1-13.1c-23.7-3.2-47.7,5.6-71.4,2.8c-16.3-1.9-31.6-9.2-47.8-11.9
		c-16.2-2.7-35.5,0.7-44,14.8c31.8-18.6,49-55.2,79-76.7c7.7-5.5,16.7-10.1,26.2-10.1c12.8,0,24.1,7.9,34.4,15.6
		c4.7-0.7,2.6-7.9-0.6-11.4c-11.6-12.7-23.2-25.5-34.8-38.2c-17.4,22.5-36.9,43.3-58,62.3"/>
	<g id="XMLID_211_">
		<path class="st2" d="M413,311c-5.3,7.3-8,19.4-8,28.4c0,4.1,0.9,10.5,1.9,14.4c1,4,3.7,10.6,6.1,13.9c7.5,10.3,16.8,20,29.9,23
			c13.6,3.1,26,1.3,38.5-5c9.3-4.7,18.6-9.7,28.1-14.2c-4,1.7-8,3.4-11.9,5c0.5-0.1,1-0.3,1.4-0.4c-4.4,0.6-8.9,1.2-13.3,1.8
			c0.5,0,1,0.1,1.5,0.1c-8.4-2.3-16.8-4.6-25.2-6.8c0.4,0.2,0.8,0.4,1.2,0.6c-3.4-2.6-6.7-5.2-10.1-7.8c0.3,0.3,0.7,0.6,1,0.9
			c-2.6-3.4-5.2-6.7-7.8-10.1c6.9,9,13.4,18.4,20.1,27.6c6.5,8.9,13.2,17.7,17.7,27.9c-1.7-4-3.4-8-5-11.9c2.9,7.1,4.7,14.5,5.8,22
			c-0.6-4.4-1.2-8.9-1.8-13.3c1.6,12.3,1.6,24.8,1.9,37.2c0.3,13.4,0.5,26.9,0.8,40.3c0.3,13.1,0.5,26.2,0.8,39.4
			c0.3,12.9,1.6,26.4,0.4,39.3c0.6-4.4,1.2-8.9,1.8-13.3c-0.3,2.1-0.7,3.9-1.5,5.9c1.7-4,3.4-8,5-11.9c-0.4,0.9-0.9,1.8-1.5,2.6
			c2.6-3.4,5.2-6.7,7.8-10.1c-0.9,1.1-1.7,2-2.8,2.9c3.4-2.6,6.7-5.2,10.1-7.8c-1.5,1.1-3,1.9-4.7,2.6c4-1.7,8-3.4,11.9-5
			c-2.7,1-5.4,1.5-8.2,1.9c4.4-0.6,8.9-1.2,13.3-1.8c-13.7,1.6-27.6,1.9-41.3,2.6c-14.6,0.8-29.1,1.5-43.7,2.2
			c-29.1,1.3-58.3,2.4-87.4,3.2c-58.3,1.6-116.6,2-174.9,1.3c-16.6-0.2-33.1-0.5-49.7-0.8c-16.2-0.4-32.6-0.1-48.7-1.4
			c4.4,0.6,8.9,1.2,13.3,1.8c-1-0.1-2-0.3-2.9-0.7c4,1.7,8,3.4,11.9,5c-0.9-0.3-1.7-0.8-2.5-1.5c3.4,2.6,6.7,5.2,10.1,7.8
			c-0.3-0.3-0.6-0.7-1-1c2.6,3.4,5.2,6.7,7.8,10.1c-0.6-0.7-1.1-1.6-1.5-2.4c1.7,4,3.4,8,5,11.9c-3.3-8-4.6-17.2-6.6-25.5
			c-2.2-9-4.6-17.9-6.5-27c0.6,4.4,1.2,8.9,1.8,13.3c0-0.5-0.1-0.9-0.1-1.4c-0.6,4.4-1.2,8.9-1.8,13.3c0.1-0.4,0.1-0.9,0.2-1.3
			c-1.7,4-3.4,8-5,11.9c0.2-0.4,0.4-0.7,0.7-1.1c-6,6-12,12-17.9,17.9c0.3-0.2,0.7-0.5,1-0.7c-4,1.7-8,3.4-11.9,5
			c0.8-0.3,1.6-0.5,2.5-0.6c-4.4,0.6-8.9,1.2-13.3,1.8c11.2-1.5,22.3-2.9,33.5-4.4c11-1.4,22.1-2.7,33.2-1.3
			c-4.4-0.6-8.9-1.2-13.3-1.8c8.6,1.3,16.8,4.2,25.2,6.5c11.6,3.2,23.6,4.8,35.6,5.5c16.5,0.9,33.3-0.1,49.8-0.9
			c36.6-1.8,74.2-5.9,108.9-18.2c-16.2-27.9-32.4-55.7-48.6-83.6c-4.2,3.5-8.3,7-12.5,10.5c23.6,23.6,47.1,47.1,70.7,70.7
			c2.7-3.3,5.6-6.3,8.9-8.9c-3.4,2.6-6.7,5.2-10.1,7.8c3-2.2,6.1-4.2,9.4-5.8c10.3-5.1,20.4-18.8,23-29.9c2.5-11.2,2-21.9-2.5-32.6
			c-9.8-23.3-34.4-34.7-59-28.9c-5.2,1.2-10.5,2.5-15.7,3.7c12.8,30.5,25.7,60.9,38.5,91.4c1.5-0.8,3-1.5,4.5-2.2
			c-4,1.7-8,3.4-11.9,5c4.7-1.9,9.5-3.2,14.5-4c-4.4,0.6-8.9,1.2-13.3,1.8c8.5-1.1,16.9-0.9,25.4,0.2c-4.4-0.6-8.9-1.2-13.3-1.8
			c16.7,2.3,33,6.4,49.6,8.7c8.6,1.2,17.1,2.1,25.7,2c10.8-0.1,21.6-1.7,32.2-3.3c17-2.6,32.6-8.7,48.2-15.8
			c9.4-4.2,18.3-9.6,25.8-16.7c7.7-7.3,13.3-16.4,16.4-26.5c3.4-10.9,2.4-20.6,0.6-31.8c-1.7-4-3.4-8-5-11.9
			c-3.1-5.8-7.4-10.5-12.9-14c-3.1-3.1-6.8-5.2-11-6.4c-6-3.1-12.4-4.6-19.3-4.3c-24.5-3-48.7,5.8-73.2,2.6
			c4.4,0.6,8.9,1.2,13.3,1.8c-10-1.5-19.5-4.7-29.1-7.6c-12.6-3.8-25.9-6.5-39.1-6.8c-31.5-0.7-61.1,13.7-78.2,40.4
			c-1.7,4-3.4,8-5,11.9c-2.1,6.6-2.4,13.3-0.9,19.9c1.4,10.5,5.7,21.3,13.8,28.7c16.3,15,40.9,19.5,60.6,7.8
			c18.7-11.1,34.3-26.3,48.3-42.8c11.7-13.7,23-27.8,37.2-39c-3.4,2.6-6.7,5.2-10.1,7.8c4.8-3.7,9.8-7,15.3-9.5c-4,1.7-8,3.4-11.9,5
			c3.7-1.5,7.3-2.6,11.2-3.1c-4.4,0.6-8.9,1.2-13.3,1.8c2.8-0.2,5.5-0.2,8.3,0.2c-4.4-0.6-8.9-1.2-13.3-1.8c3.3,0.6,6.4,1.5,9.4,2.8
			c-4-1.7-8-3.4-11.9-5c4.1,1.8,8,4.1,11.8,6.6c1.9,1.3,3.7,2.6,5.6,3.9c8.1,5.9,17.9,8.8,27.9,8.8c23.2,0,43.9-15.9,50.4-38.1
			c3.1-10.6,3-22.1-0.3-32.6c-5.2-16.6-17.3-28.3-28.7-40.7c-7.1-7.8-14.3-15.7-21.4-23.5c-8-8.8-23.5-15.2-35.4-14.6
			c-12.3,0.6-27.4,4.5-35.4,14.6c-17.5,22.4-36.9,43.3-58,62.3c-9.2,8.3-14.6,23.2-14.6,35.4c0,12.3,5.4,26.9,14.6,35.4
			c9.5,8.7,22,15.2,35.4,14.6c13.7-0.6,25.1-5.4,35.4-14.6c21.2-19,40.6-39.8,58-62.3c-23.6,0-47.1,0-70.7,0
			c11.8,13,24.4,25.5,35.5,39.1c-2.6-3.4-5.2-6.7-7.8-10.1c0.7,1,1.2,2,1.7,3.1c-1.7-4-3.4-8-5-11.9c0.4,1.1,0.7,2.1,0.8,3.3
			c-0.6-4.4-1.2-8.9-1.8-13.3c0,0.3,0,0.7,0,1c0.6-4.4,1.2-8.9,1.8-13.3c0,0.6-0.2,1.2-0.5,1.7c4.3-7.4,8.6-14.7,12.9-22.1
			c-0.2,0.2-0.4,0.4-0.5,0.7c3.4-2.6,6.7-5.2,10.1-7.8c-0.2,0.2-0.5,0.3-0.7,0.5c4-1.7,8-3.4,11.9-5c-0.3,0.1-0.6,0.2-1,0.3
			c12.8,1.7,25.7,3.4,38.5,5c-6.4-4.7-12.8-9.2-20-12.5c-7-3.2-13.9-6.4-21.4-7.8c-13.3-2.5-21.5-2.3-34.9-0.2
			c-21.6,3.5-41,17.9-56.6,32.4c-20.4,18.9-35.2,43.2-57.4,60.4c3.4-2.6,6.7-5.2,10.1-7.8c-3.2,2.4-6.5,4.7-10,6.7
			c22.8,22.8,45.6,45.6,68.4,68.4c0.5-0.8,1-1.5,1.5-2.2c-2.6,3.4-5.2,6.7-7.8,10.1c1.7-2.1,3.5-3.9,5.6-5.6
			c-3.4,2.6-6.7,5.2-10.1,7.8c2.2-1.6,4.4-2.9,6.9-4c-4,1.7-8,3.4-11.9,5c3.8-1.6,7.8-2.6,11.9-3.3c-4.4,0.6-8.9,1.2-13.3,1.8
			c5.6-0.7,11.2-0.6,16.8,0.1c-4.4-0.6-8.9-1.2-13.3-1.8c10.1,1.6,19.8,4.9,29.6,7.8c13.6,4,27.9,6.6,42,6.7
			c20.9,0.2,41.4-5.9,62.3-3.4c-16.1-12.2-32.1-24.5-48.2-36.7c0.1,0.5,0.1,0.9,0.2,1.4c-0.6-4.4-1.2-8.9-1.8-13.3
			c0,0.4,0,0.9,0,1.3c0.6-4.4,1.2-8.9,1.8-13.3c-0.1,0.9-0.4,1.7-0.8,2.5c1.7-4,3.4-8,5-11.9c-0.4,0.8-0.9,1.6-1.5,2.3
			c2.6-3.4,5.2-6.7,7.8-10.1c-1,1.1-2,2.1-3.2,3.1c3.4-2.6,6.7-5.2,10.1-7.8c-5.3,3.9-11.6,6.7-17.6,9.3c4-1.7,8-3.4,11.9-5
			c-11.2,4.7-22.8,7.8-34.8,9.6c4.4-0.6,8.9-1.2,13.3-1.8c-12.1,1.6-24.2,1.7-36.3,0.2c4.4,0.6,8.9,1.2,13.3,1.8
			c-20.3-2.8-40-8.1-60.5-10c-22.6-2.1-45.5,2.7-65.5,13.3c-10.3,5.5-20.4,18.5-23,29.9c-2.5,11.2-2,21.9,2.5,32.6
			c9.8,23.3,34.4,34.7,59,28.9c5.2-1.2,10.5-2.5,15.7-3.7c-12.8-30.5-25.7-60.9-38.5-91.4c-10.7,5.3-21,13.2-28.4,22.6
			c-4.9,4.5-8.3,9.9-10.3,16.1c-3.1,6-4.6,12.4-4.3,19.3c0,12.3,5.4,26.9,14.6,35.4c9.5,8.7,22,15.2,35.4,14.6
			c4.4-0.6,8.9-1.2,13.3-1.8c8.5-2.4,15.8-6.7,22.1-12.9c4.2-3.5,8.3-7,12.5-10.5c2.6-3.4,5.2-6.7,7.8-10.1
			c3.7-5.7,5.6-11.9,5.9-18.6c1.4-10.7,0.1-22.6-5.9-31.9c-4.7-7.2-10.7-13.3-17.9-17.9c-9.9-6.4-27.3-9-38.5-5
			c-18.1,6.4-36.8,10.4-55.8,13c4.4-0.6,8.9-1.2,13.3-1.8c-16.3,2.1-32.7,3.2-49.1,3.8c-16.6,0.6-33.5,1.7-50-0.4
			c4.4,0.6,8.9,1.2,13.3,1.8c-7.8-1.2-15.2-3.5-22.7-5.7c-11.5-3.4-23.5-5.5-35.5-6c-16.3-0.7-32.9,2.8-49,4.9
			c-8,1-16.3,1.5-24.1,3.2c-13.8,3-26.6,12.7-33.7,24.8c-7.7,13.1-8.4,27.9-5.3,42.5c0.8,4,1.9,8,2.9,12.1
			c4.8,20,7.6,42.5,20.5,59.2c7.5,9.7,18,17.6,30.1,20.6c7.3,1.8,15,2.3,22.4,2.5c8.6,0.3,17.2,0.5,25.8,0.7
			c16.6,0.4,33.1,0.8,49.7,1c33.8,0.5,67.6,0.6,101.4,0.4c67.2-0.5,134.5-2.4,201.6-5.9c16.9-0.9,33.7-1.8,50.6-2.9
			c10.1-0.6,20.8-1,30.4-4.2c16.3-5.5,31.4-15.6,39.5-31.4c10.8-21.2,8.4-44.5,7.9-67.5c-0.3-16.7-0.7-33.5-1-50.2
			c-0.3-16.1-0.5-32.3-1-48.4c-0.3-11.6-1.6-23-3.3-34.6c-1.1-7.3-2.7-14.4-5.5-21.2c-4.4-11.1-9.1-21.1-15.9-30.8
			c-4.6-6.5-9.3-12.8-13.9-19.2c-5.7-7.8-11.3-15.7-17.2-23.3c-10.1-13.1-25.3-21.2-42.2-21.3c-12.1-0.1-22.7,4.8-33.2,10.1
			c-7.4,3.8-14.8,7.5-22.2,11.3c22.8,6,45.6,12,68.4,17.9c-0.2-0.3-0.4-0.6-0.7-0.9c1.7,4,3.4,8,5,11.9c-0.1-0.4-0.3-0.7-0.4-1.1
			c0.6,4.4,1.2,8.9,1.8,13.3c-0.2-0.8-0.2-1.5,0-2.3c-0.6,4.4-1.2,8.9-1.8,13.3c0.1-0.4,0.3-0.7,0.4-1.1c-1.7,4-3.4,8-5,11.9
			c0.2-0.3,0.5-0.6,0.7-0.9c7.2-9.9,8.1-27.3,5-38.5c-3.2-11.6-12.2-24.2-23-29.9c-11.6-6.1-25.7-9.2-38.5-5c-4,1.7-8,3.4-11.9,5
			C423.4,297.5,417.5,303.5,413,311L413,311z"/>
	</g>
</g>
<rect id="XMLID_111_" x="170.9" y="381.1" class="st3" width="19.5" height="241.9"/>
<path id="XMLID_1_" class="st4" d="M522,635.9l-443.4-1c-35.6-0.1-64.4-29-64.3-64.6L15.2,144c0.1-35.6,29-64.4,64.6-64.3l443.4,1
	c35.6,0.1,64.4,29,64.3,64.6l-0.9,426.4C586.5,607.2,557.6,636,522,635.9z"/>
<path id="XMLID_40_" class="st5" d="M616.9,68.9"/>
<path id="XMLID_33_" class="st5" d="M569.4,43.4"/>
<path id="XMLID_74_" class="st5" d="M612.9,86.3"/>
<path id="XMLID_69_" class="st5" d="M641.1,33"/>
<path id="XMLID_79_" class="st5" d="M610.2,80.7"/>
<path id="XMLID_78_" class="st5" d="M564.8,111.7"/>
<path id="XMLID_84_" class="st5" d="M590.5,92.3"/>
<path id="XMLID_83_" class="st5" d="M649.5,107.1"/>
<path id="XMLID_94_" class="st6" d="M163.8,387c-43.3,1.3-80.3-31.4-89.2-75.8c14.1-11.6,31.8-18.7,51.2-19.2
	c44.4-1.3,81.9,32.2,88,76.4C199.8,379.6,182.6,386.4,163.8,387z"/>
<path id="XMLID_93_" class="st7" d="M267.4,353.2c-23.4,36.4-71.3,48.5-112.9,30.8c-1.6-18.2,2.6-36.8,13.1-53.1
	c24-37.3,72.9-49.4,112.8-29.3C281.7,319.4,277.6,337.4,267.4,353.2z"/>
<path id="XMLID_92_" class="st6" d="M216.5,364.4c18.7,39.1,3.8,86.2-33.1,112.3c-16.3-8.2-30-21.5-38.3-39
	c-19.2-40.1-3.8-87.9,34.2-111.4C195.2,334.5,208.4,347.5,216.5,364.4z"/>
<g id="XMLID_91_">
	<path id="XMLID_159_" class="st8" d="M193.4,367.5c-22.4-4.4-44.4-10.3-66-17.6c19.4-0.3,38.8,4.9,55.4,14.9
		c-15.1-4.1-29.4-10.8-42.2-19.7c6.6-1.9,14.1,0.1,18.8,5.1c1.2,1.2,2.3,2.9,1.8,4.5c-1.1,4.4-8.1,0.9-12.3,2.7
		c6.5,5,13.1,9.9,19.6,14.9c-6.7-0.8-13.2-3.1-19-6.6c5.5,0.2,11,1.2,16.2,3.2c-2.2,0.1-4.5,0.1-6.7,0.2"/>
</g>
<g id="XMLID_86_">
	<path id="XMLID_178_" class="st8" d="M144.9,367.7c0.6,0.3,1.3,0.3,1.9,0.4c3,0.4,6,1.2,8.9,2.3"/>
</g>
<g id="XMLID_85_">
	<path id="XMLID_184_" class="st8" d="M147,369c2.5,0.5,5.1,1.1,7.6,1.6"/>
</g>
<g id="XMLID_82_">
	<path id="XMLID_154_" class="st8" d="M156.5,379.8c1-2.3,1.5-4.9,1.3-7.5"/>
</g>
<g id="XMLID_75_">
	<path id="XMLID_172_" class="st8" d="M155.7,377c-0.7-1-1-2.3-0.7-3.5"/>
</g>
<g id="XMLID_73_">
	<path id="XMLID_177_" class="st8" d="M155.6,373.8c-2.2-1.5-4.5-3-6.7-4.5"/>
</g>
<g id="XMLID_72_">
	<path id="XMLID_150_" class="st8" d="M165.1,347.8c-3-1.4-5.6-3.8-7.1-6.7c5.3,3.1,10.7,6.1,16,9.2c-3.7-5.7-9.1-10.1-14.3-14.4
		c5.5,0.5,10.9,1.7,16.1,3.4c-4.3-0.6-8.4-2.1-12.1-4.4c5.5-1.8,11.6-1.8,17.1,0.1c-7.4,0.6-14.9-0.3-21.9-2.9
		c0.6-1.2,2.3-1.4,3.6-1.3c5.7,0.2,11.3,0.8,16.9,1.9c-4.5-0.4-8.9-1.7-12.9-3.6c-0.5-0.2-1.1-0.7-0.8-1.2c0.2-0.4,0.7-0.4,1.1-0.3
		c3,0.3,6.1,0.7,9.1,1c-6.6-2.5-13.5-5.1-18.7-10c0.7-1.1,2.2-1.1,3.5-1c4.6,0.3,9.1,0.5,13.7,0.8c-0.3-2.2-1.3-4.3-2.9-5.8
		c1.5,0.6,3,1.3,4.5,1.9c-0.7-1.3-1.7-2.3-3-3c0.7,0.8,1.6,1.6,2.5,2.1c-0.5-0.6-1-1.3-1.6-1.9c0.5,0.2,1,0.5,1.5,0.7
		c-0.6-1-1.3-1.8-2.2-2.6c0.7,1.6,1.9,3,3.5,3.9c-1-1.4-2-2.7-3-4.1"/>
</g>
<g id="XMLID_65_">
	<path id="XMLID_147_" class="st8" d="M177.5,339.3c-0.4-4,1.4-8.2,4.5-10.8c0.8-0.6,1.7-1.2,2.7-1.1c0.8,0.1,1.6,0.5,2.2,1
		c1.7,1.2,3.4,2.4,4.3,4.2c0.9,1.8,0.7,4.3-1,5.4c-1.5,0.9-3.4,0.5-5,0c0.5-2.7,3.8-4.1,6.5-3.6s5,2.4,7.1,4.1
		c0.4,0.3,0.7,0.6,0.8,1.1c0.1,0.8-0.7,1.4-1.4,1.7c-2.9,1.1-6.5,0.4-8.7-1.8c1.8-2,4.6-3,7.3-2.8c3.2,0.3,6.2,2.7,6.6,5.8
		c0.5,3.1-2.1,6.6-5.3,6.4c1.9-1.5,4-3.1,6.4-3.5c2.7-0.5,5.7,0.7,7,3.1s0.3,5.9-2.2,6.9c3.2-2.8,7.6-4.4,11.9-4.3
		c-1.8,4.7-4.3,9-7.3,13c2.8-3.6,6.3-6.7,10.3-9c-2.5,5.4-6.7,9.7-10.8,13.9c3.7-1,6.7-4.1,7.6-7.8c-11.6,0.4-23.2,3-33.9,7.5
		c5.8-2.2,11.7-4.3,17.6-6.4c-5.8,5.4-12.7,11.2-20.7,10.5c-4.3-0.4-8.7-2.6-12.6-0.7c-3,1.5-4.4,5-5.5,8.2c-1.4-0.5-2.3-2-3-3.3
		c-0.8-1.3-1.7-2.7-3.1-3.1c-1.5-0.4-3.4,0.9-2.8,2.3c-1.2-0.5-1.6-2.1-1.3-3.3s1.2-2.3,2-3.3c6.6-7.8,13.3-15.7,19.9-23.5
		c6-7,12.6-14.5,21.7-16.3c1.6,0.4,1.7,3,0.3,3.9c-1.4,0.9-3.3,0.2-4.4-1.1s-1.5-2.9-1.9-4.5c-0.8-3.1-1.5-6.1-2.3-9.2
		c-0.5-2-1.2-4.3-3.2-5.1"/>
</g>
<g id="XMLID_64_">
	<path id="XMLID_145_" class="st8" d="M230.1,357.5c-2.4,1.7-4.4,3.8-6.1,6.1c-2.1,2.9-3.6,6.4-6.4,8.7c4.1-3,8.2-6,12.4-8.9
		c-2.5,2.1-5.4,3.9-8.4,5.1c3.4-0.1,6.7-1.2,9.6-3c-2.2,1-4.5,1.9-6.9,2.5c1.8-1.2,3.9-2.1,6-2.5c-1.7,1.6-3.8,2.7-6.1,3
		c2.1-0.1,4.2-0.6,6.2-1.2c0.4-0.1,1-0.5,0.8-1c-0.2-0.3-0.5-0.3-0.9-0.3c-3.2,0.4-6.3,1.7-8.7,3.9c-1,0.9-1.8,2.4-1,3.4
		c2.1-2.2,4.2-4.4,6.2-6.7"/>
</g>
<g id="XMLID_58_">
	<path id="XMLID_143_" class="st8" d="M171.8,315.7c5.6,0.1,11.2,0.9,16.6,2.5c-4.6-1-9.2-2-13.8-3c2.4,0.9,5,1.3,7.6,1.2
		c-1.5-1.3-3.2-2.2-5.1-2.6c2.3,0.7,4.8,0.7,7.1-0.1"/>
</g>
<path id="XMLID_24_" class="st9" d="M204.5,334.5c43.3-0.4,79.6,33.1,87.7,77.6c-14.3,11.3-32.2,18-51.6,18.2
	c-44.4,0.4-81.3-33.9-86.4-78.2C168.4,341.1,185.8,334.7,204.5,334.5z"/>
<path id="XMLID_23_" class="st6" d="M92.9,369.7c23.2-36.6,70.9-49,112.7-31.7c1.7,18.1-2.3,36.8-12.7,53.2
	c-23.7,37.5-72.5,50-112.5,30.2C78.9,403.6,82.8,385.5,92.9,369.7z"/>
<path id="XMLID_22_" class="st6" d="M145.7,347c-19-38.9-4.5-86.1,32.2-112.5c16.3,8.1,30.1,21.3,38.6,38.7
	c19.5,39.9,4.5,87.9-33.3,111.7C167.2,376.8,153.9,363.9,145.7,347z"/>
<g id="XMLID_21_">
	<path id="XMLID_141_" class="st8" d="M168.7,344.8c22.4,4.2,44.5,9.9,66.2,17.1c-19.4,0.5-38.8-4.6-55.5-14.4
		c15.1,3.9,29.5,10.5,42.4,19.3c-6.5,1.9-14.1,0-18.8-4.9c-1.2-1.2-2.3-2.9-1.9-4.5c1.1-4.4,8.1-1,12.3-2.8
		c-6.6-4.9-13.1-9.8-19.7-14.7c6.7,0.7,13.2,3,19,6.4c-5.5-0.1-11-1.2-16.2-3c2.2-0.1,4.5-0.2,6.7-0.3"/>
</g>
<g id="XMLID_20_">
	<path id="XMLID_183_" class="st8" d="M217.2,344.2c-0.6-0.3-1.3-0.3-1.9-0.4c-3-0.4-6-1.1-8.9-2.2"/>
</g>
<g id="XMLID_19_">
	<path id="XMLID_185_" class="st8" d="M215.1,342.9c-2.5-0.5-5.1-1-7.6-1.5"/>
</g>
<g id="XMLID_18_">
	<path id="XMLID_136_" class="st8" d="M205.5,332.1c-1,2.3-1.4,4.9-1.2,7.5"/>
</g>
<g id="XMLID_17_">
	<path id="XMLID_181_" class="st8" d="M206.3,334.9c0.7,1,1,2.3,0.7,3.5"/>
</g>
<g id="XMLID_16_">
	<path id="XMLID_182_" class="st8" d="M206.4,338.2c2.2,1.5,4.5,3,6.7,4.5"/>
</g>
<g id="XMLID_15_">
	<path id="XMLID_123_" class="st8" d="M197.2,364.3c3,1.4,5.6,3.7,7.2,6.7c-5.4-3-10.7-6-16.1-9.1c3.8,5.6,9.1,10,14.4,14.3
		c-5.5-0.5-10.9-1.6-16.1-3.3c4.3,0.5,8.4,2,12.1,4.3c-5.5,1.9-11.6,1.9-17.1,0c7.4-0.7,14.9,0.2,21.9,2.7c-0.6,1.2-2.3,1.4-3.6,1.3
		c-5.7-0.1-11.3-0.7-16.9-1.8c4.5,0.4,8.9,1.6,12.9,3.5c0.5,0.2,1.1,0.7,0.8,1.2c-0.2,0.4-0.7,0.4-1.1,0.3c-3-0.3-6.1-0.6-9.1-0.9
		c6.7,2.5,13.5,5,18.7,9.8c-0.7,1.1-2.2,1.1-3.5,1.1c-4.6-0.2-9.1-0.4-13.7-0.7c0.3,2.2,1.4,4.3,3,5.8c-1.5-0.6-3-1.2-4.5-1.9
		c0.7,1.3,1.7,2.3,3,3c-0.7-0.8-1.6-1.6-2.5-2.1c0.5,0.6,1,1.3,1.6,1.9c-0.5-0.2-1-0.4-1.5-0.7c0.6,0.9,1.3,1.8,2.2,2.6
		c-0.7-1.6-2-3-3.5-3.8c1,1.4,2,2.7,3,4.1"/>
</g>
<g id="XMLID_14_">
	<path id="XMLID_120_" class="st8" d="M184.8,372.9c0.4,4-1.3,8.2-4.4,10.8c-0.8,0.6-1.7,1.2-2.7,1.2c-0.8,0-1.6-0.5-2.3-1
		c-1.7-1.1-3.4-2.4-4.3-4.1s-0.7-4.3,1-5.4c1.5-0.9,3.4-0.5,5-0.1c-0.5,2.7-3.8,4.2-6.5,3.7s-5-2.3-7.1-4.1
		c-0.4-0.3-0.7-0.6-0.8-1.1c-0.1-0.8,0.7-1.4,1.4-1.7c2.9-1.1,6.4-0.4,8.7,1.8c-1.8,2-4.6,3.1-7.3,2.8c-3.2-0.3-6.2-2.7-6.7-5.8
		s2.1-6.6,5.2-6.5c-1.9,1.5-3.9,3.1-6.4,3.6c-2.7,0.5-5.7-0.7-7-3.1c-1.3-2.4-0.3-5.9,2.2-6.9c-3.2,2.9-7.5,4.5-11.9,4.4
		c1.8-4.7,4.2-9.1,7.2-13.1c-2.8,3.6-6.3,6.7-10.2,9.1c2.4-5.4,6.6-9.8,10.7-14c-3.7,1-6.7,4.1-7.5,7.8c11.6-0.5,23.2-3.2,33.8-7.8
		c-5.8,2.3-11.7,4.4-17.5,6.5c5.8-5.5,12.6-11.3,20.6-10.7c4.3,0.3,8.7,2.5,12.6,0.6c3-1.5,4.3-5,5.4-8.2c1.4,0.5,2.3,1.9,3,3.2
		c0.8,1.3,1.7,2.7,3.2,3.1s3.4-0.9,2.8-2.3c1.2,0.5,1.6,2.1,1.3,3.3c-0.3,1.3-1.2,2.3-2,3.3c-6.6,7.9-13.1,15.8-19.7,23.7
		c-5.9,7.1-12.5,14.6-21.5,16.4c-1.6-0.4-1.7-3-0.3-3.9s3.3-0.2,4.4,1s1.5,2.9,2,4.5c0.8,3,1.6,6.1,2.4,9.1c0.5,2,1.3,4.3,3.2,5"/>
</g>
<g id="XMLID_13_">
	<path id="XMLID_113_" class="st8" d="M132,355.1c2.3-1.7,4.4-3.8,6.1-6.2c2.1-3,3.6-6.4,6.3-8.8c-4.1,3-8.2,6-12.3,9
		c2.5-2.2,5.3-3.9,8.4-5.2c-3.4,0.1-6.7,1.2-9.6,3.1c2.2-1.1,4.5-1.9,6.9-2.6c-1.8,1.2-3.9,2.1-6,2.6c1.6-1.6,3.8-2.7,6.1-3
		c-2.1,0.2-4.2,0.6-6.2,1.3c-0.4,0.2-1,0.6-0.8,1c0.2,0.3,0.6,0.3,0.9,0.3c3.2-0.4,6.3-1.8,8.7-4c1-0.9,1.8-2.4,0.9-3.4
		c-2.1,2.2-4.2,4.4-6.1,6.7"/>
</g>
<g id="XMLID_12_">
	<path id="XMLID_110_" class="st8" d="M190.7,396.4c-5.6,0-11.3-0.8-16.7-2.4c4.6,1,9.2,2,13.8,2.9c-2.4-0.8-5.1-1.2-7.6-1.1
		c1.5,1.3,3.3,2.2,5.2,2.5c-2.3-0.7-4.8-0.6-7.1,0.1"/>
</g>
<g id="XMLID_54_">
	<path id="XMLID_106_" class="st8" d="M169.7,366.6c-7.8,0.6-15.7-1.7-21.9-6.4c1.3-2.2,4.6-1.8,7-1.1c8.3,2.4,16.6,5,24.8,7.7"/>
</g>
<g id="XMLID_62_">
	<path id="XMLID_101_" class="st8" d="M189.6,384.7c0.2,1.6-2,2.1-3.6,2c-3.9-0.2-7.8-0.4-11.7-0.7c1.1,1.6,2.9,2.7,4.8,3.1"/>
</g>
<g id="XMLID_63_">
	<path id="XMLID_95_" class="st8" d="M226.4,357.9c-4.9-2.8-9.8-5.7-14.7-8.5c1.5-1,3.7-1.1,5.3,0"/>
</g>
<g id="XMLID_121_">
	<path id="XMLID_89_" class="st8" d="M226.4,344.9c-0.6,0.4-1.4,0.2-2-0.2c-0.6-0.4-1.1-0.9-1.7-1.3c-0.9-0.6-2-0.8-3-1
		c-2-0.4-4-0.8-6-1.2"/>
</g>
<g id="XMLID_180_">
	<path id="XMLID_87_" class="st8" d="M147.7,333c0.1,1.4-0.7,2.8-2,3.4"/>
</g>
<g id="XMLID_5_">
	<path id="XMLID_71_" class="st10" d="M195.1,399.7c-5.2-3.6-10.6-7.5-13.2-13.2c1.3-0.6,2.7-0.2,4,0.2c4.5,1.3,9,3,13.5,4.6"/>
</g>
<g id="XMLID_6_">
	<path id="XMLID_88_" class="st11" d="M205.8,373.7c-6,4.5-14.4,2-21.7,0.4c-8.6-1.9-17.6-2.4-26.4-1.3c-0.5,0.1-1.1,0.2-1.4,0.6
		c-0.6,1,0.9,1.9,2,2.2c11.8,2.5,23.6,5.1,35.4,7.6c-11.4-0.4-22.7-1.4-33.9-3.1c15.9-2.9,33.1-3.2,47.5,4.2
		c-4.9,0.3-9.9-1.6-13.5-5c-0.9-0.9-1.7-1.9-2.1-3.1c-0.9-3.1,1.6-6.3,4.5-7.9c2.8-1.5,6.2-2.2,9.2-1.1c3,1.1,5.3,4.2,4.8,7.4
		c-3.3,2.3-8.4-0.6-9.1-4.6c-0.7-4,1.9-7.9,5.3-10c3.4-2.1,7.6-2.7,11.6-3.1c-2.4-3.4-4.9-6.8-7.3-10.2c3.3,1.6,6.4,3.5,9.5,5.5
		c-1.9-2.5-4.3-4.6-7.1-6.1"/>
</g>
<g id="XMLID_7_">
	<path id="XMLID_80_" class="st12" d="M163.3,364c-4.8,2.2-9.5,4.4-14.3,6.6c-1.5-3.1-0.6-6.9,1-9.9c1.6-3,4-5.7,5.4-8.9
		c0.2-0.5,0.4-1,0.3-1.5c-0.3-1.6-2.7-1.5-4.2-0.9c-4,1.6-7.9,3.5-11.7,5.4c3.8-4.3,7.6-8.7,11.3-13c-0.4-0.9-1.7-0.8-2.6-0.4
		c-3.7,1.3-7,3.5-9.7,6.2c0.4,0.3,0.8,0.6,1.1,0.9"/>
</g>
<g id="XMLID_103_">
	<path id="XMLID_76_" class="st12" d="M224.5,348.5c-3.3-0.8-5.5-4.1-8.8-5.2c-0.3-0.1-0.7-0.2-1-0.4c1.1-0.5,2.3,0.1,3.4,0.6
		c2.1,1,4.3,1.8,6.5,2.5c-2.3-2.1-5.2-3.6-8.3-4.3"/>
</g>
<g id="XMLID_2_">
	<path id="XMLID_68_" class="st13" d="M196.6,407c-2.8-2.4-5.8-4.6-9-6.4c-1.2-0.7-2.6-1.5-3-2.9"/>
</g>
<g id="XMLID_3_">
	<path id="XMLID_169_" class="st11" d="M193,406.1c-1.2-2.3-3.2-4.2-5.5-5.3c-1.2-0.6-2.7-1.1-3-2.4c2,1,3.6,2.6,4.7,4.6
		c-1-0.7-1.8-1.7-2.4-2.7"/>
</g>
<g id="XMLID_4_">
	<path id="XMLID_171_" class="st14" d="M137.7,344.6c3.1-0.5,5.4-3.9,8.5-3.8"/>
</g>
<g id="XMLID_108_">
	<path id="XMLID_173_" class="st15" d="M137.8,343.2c1.1-0.1,2.2-0.4,3.1-1.1"/>
</g>
<path id="XMLID_157_" class="st3" d="M153.9,549.3c-23.8,1.4-44.4-19.9-46-47.5c-0.1-1.5-0.1-3.1-0.1-4.6c4.3-1.7,8.9-2.7,13.7-3
	c25.9-1.5,48.4,19.5,52.7,47.8C168.3,546.2,161.4,548.8,153.9,549.3z"/>
<path id="XMLID_116_" class="st3" d="M208.3,548.9c24.1-1.4,42.3-24.1,40.8-50.8c-0.1-1.5-0.2-3-0.4-4.4c-4.5-1.1-9.2-1.6-14-1.3
	c-26.1,1.5-46.4,24.1-47.5,51.8C193.5,547.6,200.8,549.4,208.3,548.9z"/>
<path id="XMLID_138_" class="st16" d="M446,186.3h-86c-5.2,0-9.5-4.3-9.5-9.5v0c0-5.2,4.3-9.5,9.5-9.5h86c5.2,0,9.5,4.3,9.5,9.5v0
	C455.5,182.1,451.2,186.3,446,186.3z"/>
<path id="XMLID_148_" class="st16" d="M425.5,170.9h-41.5c-5.2,0-9.5-4.3-9.5-9.5v0c0-5.2,4.3-9.5,9.5-9.5h41.5
	c5.2,0,9.5,4.3,9.5,9.5v0C435,166.6,430.7,170.9,425.5,170.9z"/>
<path id="XMLID_130_" class="st17" d="M261.2,176.9H130c-7.6,0-13.8-6.2-13.8-13.8v-2.6c0-7.6,6.2-13.8,13.8-13.8h131.1
	c7.6,0,13.8,6.2,13.8,13.8v2.6C275,170.6,268.8,176.9,261.2,176.9z"/>
<path id="XMLID_118_" class="st17" d="M229.5,152.2h-62.4c-8,0-14.5-6.5-14.5-14.5v-1.2c0-8,6.5-14.5,14.5-14.5h62.4
	c8,0,14.5,6.5,14.5,14.5v1.2C244,145.6,237.4,152.2,229.5,152.2z"/>
<g id="XMLID_158_">
	<g id="XMLID_174_">
		<path class="st3" d="M38.2,487.9c17.7,1.5,35.4-0.2,52.5-4.9c8.4-2.3,16.9-5.3,25.7-5.2c8.9,0.1,17.1,3.9,25,7.5
			c5.8,2.7,10.9-5.9,5-8.6c-7.8-3.6-15.7-7.2-24.2-8.4c-9.2-1.3-18.2,0.6-27,3.1c-18.9,5.3-37.3,8.2-57,6.6
			C31.7,477.4,31.8,487.4,38.2,487.9L38.2,487.9z"/>
	</g>
</g>
<g id="XMLID_159_">
	<g id="XMLID_195_">
		<path class="st3" d="M216.9,486.1c23.2,3.7,43.7-7.3,64-17c10.7-5.1,21.7-9.8,33.5-11.8c12.3-2.1,24.9-1.5,37.2-0.6
			c24.1,1.8,49.1,5.9,72.8-0.9c22.4-6.5,38.5-23.8,59-33.9c24.4-12,53.2-1.5,77.2-14.6c5.7-3.1,0.6-11.7-5-8.6
			c-20.8,11.3-46.3,3-68.2,10.7c-21.1,7.4-36.6,24.6-56.8,33.5c-22.1,9.8-47.2,6.5-70.5,4.4c-23.9-2.1-47.3-2.7-69.9,6.6
			c-22.2,9.1-45.4,26.4-70.6,22.4C213.2,475.4,210.5,485,216.9,486.1L216.9,486.1z"/>
	</g>
</g>
<g id="XMLID_164_">
	<g id="XMLID_188_">
		<path class="st3" d="M290.7,444.5c10.5,5.2,18.7-3.9,24.6-11.6c8-10.4,16.1-20.7,24.4-30.8c16.6-20.2,33.9-39.9,51.8-58.9
			c8.9-9.4,17.9-18.7,27.1-27.8c8-8,16.8-19.4,27.9-23.1c11.3-3.8,23.9,0.1,35.5-1.3c5.6-0.7,10.5-2.8,15.7-4.6
			c6.8-2.3,11.1-0.8,15.4,4.8c9,11.5,16.8,24.4,24.5,36.8c8,12.7,15.6,25.7,22.8,38.8c3.1,5.6,11.8,0.6,8.6-5
			c-13-23.6-27.1-46.5-42.4-68.6c-6.3-9.1-13-19.4-25.6-17.8c-5.5,0.7-10.3,3.3-15.6,4.8c-6.1,1.7-12.5,1.3-18.8,0.9
			c-12.3-0.7-23.7-0.2-34,7.4c-9.7,7.2-18.1,16.6-26.5,25.1c-18.7,18.8-36.7,38.2-54,58.2c-9.7,11.2-19.1,22.5-28.4,34.1
			c-4.7,5.9-9.3,11.8-13.9,17.7c-2.2,2.8-9.4,14.8-14.3,12.4C290,433,284.9,441.6,290.7,444.5L290.7,444.5z"/>
	</g>
</g>
<g id="XMLID_168_">
	<g id="XMLID_264_">
		<path id="XMLID_8_" class="st18" d="M400.8,332.5c6.8,12.5,16.8,26.8,33.1,24.6c7-0.9,11.4-5.3,15.3-10.9
			c4.5-6.5,11.3-10.1,19-6.1c6.2,3.2,11.8,8.9,19.4,7c6.6-1.7,8-7.5,12-11.9c5.2-5.8,15.4,2.2,21,4c6.5,2.1,13.3,1.8,18.4-3
			c4.7-4.4-2.4-11.5-7.1-7.1c-4.5,4.2-12.6-1.3-17-3.2c-5.8-2.5-12.5-4.1-18.4-1c-2.5,1.3-4.4,3.4-6,5.7c-1.3,1.8-2.5,5.2-4.5,6.4
			c-2.7,1.6-6.1-1.3-8.3-2.7c-2.7-1.7-5.3-3.5-8.3-4.6c-5.7-2.1-12.3-1.6-17.8,0.9c-6.2,2.9-8.6,8.1-12.9,13
			c-4.7,5.4-12.3,4.1-17.6,0.1c-5.3-4.1-8.6-10.5-11.8-16.3C406.3,321.8,397.7,326.9,400.8,332.5L400.8,332.5z"/>
	</g>
</g>
<g id="XMLID_25_">
	<g id="XMLID_115_">
		<path id="XMLID_34_" class="st13" d="M207,396.7c-4.7,0.3-8.5-2.2-12.5-4.3c-3.9-2.1-7.9-4.3-11.8-6.4c-5.8-3.2-10,4.8-5,8.6
			c5.4,4.1,10.7,8.2,16.1,12.4c1.7-2.9,3.4-5.8,5-8.6c-3.7-1.8-7-3.9-10-6.7c-2,2.6-4,5.2-6.1,7.9c1.7,0.8,3,1.8,3.8,3.6
			c2.1-2.1,4.1-4.1,6.2-6.2c-1.6-0.4-2.3-0.8-3.4-2.1c-4.2-4.9-11.3,2.2-7.1,7.1c2.1,2.4,4.7,3.9,7.8,4.7c3.3,0.8,7.7-2.4,6.2-6.2
			c-1.7-4.2-4.2-7.5-8.3-9.6c-4.9-2.5-10.4,3.8-6.1,7.9c3.6,3.4,7.5,6.2,12,8.3c5.9,2.8,10.1-4.8,5-8.6c-5.4-4.1-10.7-8.2-16.1-12.4
			c-1.7,2.9-3.4,5.8-5,8.6c8.7,4.7,19,12.7,29.4,12.1C213.4,406.3,213.4,396.3,207,396.7L207,396.7z"/>
	</g>
</g>
<g id="XMLID_26_">
	<g id="XMLID_131_">
		<path id="XMLID_30_" class="st13" d="M180.8,393.7c0.1,0.3,0.1,0.6,0.2,0.9c0.2-1.3,0.3-2.6,0.5-3.9c0.9-1.2-3.6-0.4-3.5-0.5
			c-1.1,0.1-2.3,0.2-3.4,0.3c-0.9,0.1-1.7,0.1-2.6,0.2c-1.7-0.1-1.3,0.6,1.2,2c0.5,0,2-3.6,2.2-4c3.2-5.6,6.8-10.9,10.6-16.1
			c3-4-2.8-9.6-6.8-6.8c-6.9,4.8-12.6,10.5-17.6,17.3c-3.8,5.2,4.8,10.1,8.6,5c3.4-4.5,7.1-9.5,12.6-11.6c-1.3-3-2.6-6.1-3.9-9.1
			c-1.7,1.3-3.3,2.5-5.2,3.6c-2.2,1.3-2.8,3-2.9,0.1c-0.2-4,0.9-7.9,2.8-11.4c4-7.4,11.2-12.4,18.3-16.6c-2-2.6-4-5.2-6.1-7.9
			c-4.8,6-10.2,11.3-16.3,15.8c2.3,2.3,4.6,4.6,6.8,6.8c2.7-5.6,6.2-10.5,10.6-14.9c-2.6-2-5.2-4-7.9-6.1
			c-3.3,6.3-7.7,11.4-13.7,15.3c2.4,1,4.9,2,7.3,3c-1.1-4.9,0.2-9.7,3.6-13.4c-2.8-1.6-5.6-3.2-8.4-4.9
			c-3.5,11.4-13.8,18.2-24.3,22.6c-2.8,1.2-5.6,2.3-8.5,3.2c-0.5,0.2-0.9,0.3-1.4,0.4c-1.6,0.3-1.3,1.4,1,3.5c0.5,0,2.5-2.6,2.8-2.9
			c4.3-4.1,9.4-7.3,14.9-9.4c-1.9-2.4-3.8-4.9-5.6-7.3c-2.8,4.5-5.6,9-8.4,13.6c-2.3,3.6,1.5,8.7,5.6,7.3c6.3-2,11.8-5.4,16.2-10.3
			c2.5-2.8,1.6-7.3-2.2-8.4c-4.5-1.3-9-1.2-13.6-0.4c-2.3,0.4-4.6,1.1-6.8,1.9c-1.3,0.4-5,2.1-5.7,1.9c1,0.8,2,1.5,3,2.3
			c1.1,1.9,1.2,0.4,2.9-0.2c3.1-1.1,5.4-5.8,2.2-8.4c-2.8-2.2-5.6-3-8.7-0.9c-4.8,3.2-1.7,10.2,3.9,9.1c4.2-0.8,7.9-2.1,11.8-3.8
			c4.4-2,2.3-7.7-1.2-9.1c-3.8-1.6-7.5-0.4-10.5,2.2c-4.2,3.6,0.5,9.1,4.9,8.4c4.3-0.7,8.2-2.2,11.9-4.6c-1.7-2.9-3.4-5.8-5-8.6
			c-2.8,1.9-5.6,3.1-9,3.4c1.2,2.8,2.4,5.7,3.5,8.5c1.8-2.2,3.8-3.6,6.7-3.9c6.4-0.6,6.4-10.6,0-10c-5.5,0.5-10.2,2.5-13.8,6.8
			c-2.5,3-1.2,8.9,3.5,8.5c5.1-0.4,9.7-1.8,14-4.7c5.3-3.6,0.4-12.2-5-8.6c-3,1.9-6,3-9.5,3.6c1.6,2.8,3.2,5.6,4.9,8.4
			c0.2,0.1,0.5,0.3,0.7,0.4c-0.4-3-0.8-6.1-1.2-9.1c-3,1.4-6.1,2.2-9.4,2.8c1.3,3,2.6,6.1,3.9,9.1c-0.2,0.1-0.4,0.1-0.6,0.2
			c-1.2-0.5-2.4-1-3.5-1.5c0.3,0.2,0.5,0.4,0.8,0.6c0.7-2.8,1.5-5.6,2.2-8.4c-5.5,2-14.8,10.6-7.6,16.3c3.6,2.8,8.1,0.5,11.8-0.8
			c5.2-1.7,10.5-3.3,15.9-1.8c-0.7-2.8-1.5-5.6-2.2-8.4c-3.3,3.7-7.1,6.3-11.8,7.8c1.9,2.4,3.8,4.9,5.6,7.3c2.8-4.5,5.6-9,8.4-13.6
			c2.2-3.5-1.5-8.9-5.6-7.3c-8.4,3.2-16.9,8.2-22.6,15.4c-5.6,7.1,0,14.8,8.6,12.9c17.5-4,36.3-15.6,41.8-33.4
			c1.5-4.7-5-8.6-8.4-4.9c-5.8,6.5-8,14.6-6.2,23.1c0.7,3.1,4.7,4.7,7.3,3c7.4-4.7,13.3-11.1,17.3-18.9c2.5-4.9-3.7-10.2-7.9-6.1
			c-5,5-9.1,10.6-12.2,17c-1.9,4,2.4,10.1,6.8,6.8c6.9-5.1,13-10.7,18.3-17.4c3.3-4.2-0.8-11-6.1-7.9c-11.8,7.1-23.5,16.8-25.7,31.2
			c-0.8,5.4-0.8,13.4,4.6,16.5c5.9,3.4,13.7-2.6,18.2-6.1c4-3.1,2-11.4-3.9-9.1c-8.2,3.1-13.4,9.3-18.5,16.2c2.9,1.7,5.8,3.4,8.6,5
			c3.9-5.3,8.6-9.9,14-13.7c-2.3-2.3-4.6-4.6-6.8-6.8c-4.2,5.7-8,11.6-11.5,17.7c-2.3,4.2-5,10-0.4,13.8c4,3.3,11.3,1.2,15.9,0.8
			c5.3-0.5,10.3-2.7,9.1-8.9C189.2,384.7,179.6,387.4,180.8,393.7L180.8,393.7z"/>
	</g>
</g>
<g id="XMLID_31_">
	<g id="XMLID_217_">
		<path id="XMLID_32_" class="st13" d="M155.7,329.4c-2.6-0.7-4.9,0.1-6.9,1.7c2.4,0,4.7,0,7.1,0c-0.3-0.4-0.3-0.3,0.2,0.2
			c-0.1-0.2-0.3-0.4-0.4-0.6c-0.2-0.3-0.4-0.7-0.6-1c-0.1-0.2-0.6-0.8-0.5-1.1c0.3,0.7,0.3,0.8,0.1,0.3c-0.1-0.2-0.1-0.4-0.2-0.6
			c-0.8-2.5-3.5-4.4-6.2-3.5c-2.5,0.8-4.4,3.5-3.5,6.2c0.9,2.7,2.2,5,4,7.2c0.7,0.9,2.4,1.5,3.5,1.5c1.4-0.1,2.4-0.6,3.5-1.5
			c-0.8,0.7-1.7,1.1-2.8,0.9c2.5,0.7,5.5-0.8,6.2-3.5C159.8,332.9,158.4,330.1,155.7,329.4L155.7,329.4z"/>
	</g>
</g>
<g id="XMLID_36_">
	<g id="XMLID_223_">
		<path id="XMLID_48_" class="st13" d="M144.6,333.7c0.6,1,1.1,2,1.6,3.1c0.7,1.4-0.3-0.8,0.3,0.6c0.2,0.6,0.4,1.2,0.6,1.9
			c0.8,2.5,3.5,4.3,6.2,3.5c2.5-0.8,4.3-3.5,3.5-6.2c-0.9-2.8-2.1-5.5-3.5-8c-1.3-2.3-4.6-3.3-6.8-1.8
			C144.1,328.4,143.2,331.3,144.6,333.7L144.6,333.7z"/>
	</g>
</g>
<g id="XMLID_42_">
	<g id="XMLID_227_">
		<path id="XMLID_77_" class="st13" d="M144.6,333.3c2.1,3.1,3.7,6.4,4.8,9.9c1.9,6.1,11.6,3.5,9.6-2.7c-1.4-4.4-3.3-8.5-5.9-12.3
			c-1.5-2.2-4.4-3.2-6.8-1.8C144.2,327.7,143.1,331,144.6,333.3L144.6,333.3z"/>
	</g>
</g>
<g id="XMLID_98_">
	<g id="XMLID_233_">
		<path id="XMLID_190_" class="st13" d="M144.4,328.1c2.9,5.1,5,10.5,6.5,16.2c1.6,6.2,11.2,3.6,9.6-2.7c-1.6-6.5-4.2-12.8-7.5-18.6
			C149.9,317.5,141.2,322.5,144.4,328.1L144.4,328.1z"/>
	</g>
</g>
<g id="XMLID_99_">
	<g id="XMLID_243_">
		<path id="XMLID_187_" class="st13" d="M143.5,349c0.4-0.6,2.5-1.3,3.2-1.6c1.4-0.7,2.9-1.3,4.3-1.9c2.5-1,4.3-3.4,3.5-6.2
			c-0.7-2.4-3.6-4.5-6.2-3.5c-4.9,1.9-10.2,3.7-13.5,8c-1.6,2.2-0.3,5.6,1.8,6.8C139.2,352.3,141.9,351.2,143.5,349L143.5,349z"/>
	</g>
</g>
<g id="XMLID_109_">
	<g id="XMLID_247_">
		<path id="XMLID_127_" class="st13" d="M139.8,350.3c0.8-1.1,3.1-1.6,4.4-2.1c2.2-0.8,4.3-1.5,6.5-2.1c6.2-1.8,3.6-11.4-2.7-9.6
			c-2.8,0.8-5.6,1.7-8.4,2.8c-2.4,0.9-5.4,1.8-7,3.9c-1.7,2.1-2.1,5,0,7.1C134.5,352.1,138.2,352.5,139.8,350.3L139.8,350.3z"/>
	</g>
</g>
<g id="XMLID_114_">
	<g id="XMLID_254_">
		<path id="XMLID_126_" class="st13" d="M142.2,347.7c2.4-1.1,4.9-2,7.4-2.9c2.5-0.9,4.2-3.4,3.5-6.2c-0.7-2.5-3.6-4.4-6.2-3.5
			c-3.3,1.2-6.6,2.5-9.8,3.9c-2.5,1.1-3,4.7-1.8,6.8C136.9,348.4,139.7,348.8,142.2,347.7L142.2,347.7z"/>
	</g>
</g>
<g id="XMLID_222_">
	<g id="XMLID_258_">
		<path id="XMLID_124_" class="st19" d="M142.4,315.7c-0.2,5.9,2.7,11.2,4.4,16.7c1.7,5.7,3,11.4,3.8,17.3c3.2-0.9,6.4-1.8,9.6-2.7
			c-1.7-5.2-2.2-10.4-1.6-15.8c-3.3,0.4-6.5,0.9-9.8,1.3c1.6,5.7,3.5,11.3,5.7,16.8c1.9,4.7,10.5,4.8,9.8-1.3
			c-0.4-4.2-0.9-8.4-1.3-12.6c-2.5,1.4-5,2.9-7.5,4.3c0.3,0.2,0.6,0.5,1,0.7c-0.8-1-1.5-2-2.3-3c1,2.5,1.4,5.2,1.6,7.9
			c0.5,6.3,10.2,6.5,10,0c-0.1-3.6,0-7.2,0.3-10.8c-2.1,1.6-4.2,3.2-6.3,4.8c-0.3-0.1,2.2,7.4,2.5,8.1c1.9,4.8,10.3,4.7,9.8-1.3
			c-0.5-6-1-11.9-1.4-17.9c-2.1,1.6-4.2,3.2-6.3,4.8c-1.1-0.2-0.5-0.6,0.2,0.9c0.6,1.4,1.3,2.7,1.9,4c1,2.4,1.8,5,2.6,7.5
			c1.7,5.1,10.3,4.6,9.8-1.3c-0.4-5.5-1.1-11-2.1-16.4c-2.4,1.9-4.9,3.8-7.3,5.6c3.6,2.3,6,9.2,7.9,13c2.6,5.3,10.2,1.4,9.1-3.9
			c-0.6-3-1.9-6.7-1.7-9.8c-0.8,1.4-1.7,2.9-2.5,4.3c0.2-0.1,0.5-0.2,0.7-0.3c-1.3,0.2-2.6,0.3-3.9,0.5c1.1,0.4,3.3,6.4,4.3,8.3
			c2.7,4.8,11,1.6,9.1-3.9c-1.7-5-3.1-10.1-4.1-15.3c-3,1.3-6.1,2.6-9.1,3.9c2.5,4.3,4.3,8.8,6,13.5c2.3,6.1,10.6,3.7,9.6-2.7
			c-0.6-4.2-1.3-8.4-1.9-12.6c-2.1,2.1-4.1,4.1-6.2,6.2c0.1,0.1,2.1,3.2,2.1,3.3c1.1,1.6,2.1,3.2,3.2,4.8c2.1,3.2,4.1,6.4,6.1,9.7
			c2.6,4.3,9.1,2.4,9.3-2.5c0.2-5.2-2.2-10.7-3.5-15.7c-3,1.3-6.1,2.6-9.1,3.9c3,4.2,5.1,8.7,7.3,13.3c2,4.4,9.8,2.3,9.3-2.5
			c-0.4-4-0.7-7.9-1.1-11.9c-2.8,1.2-5.7,2.4-8.5,3.5c2.1,2,4.4,3.8,6.7,5.5c2,1.5,5.8,0.4,6.8-1.8c0.7-1.4,1.1-2.6,1-4.2
			c-0.3-6.4-10.3-6.4-10,0c0.1-0.3,0.2-0.5,0.3-0.8c2.3-0.6,4.6-1.2,6.8-1.8c-1.6-1.2-3.2-2.6-4.7-4c-2.9-2.7-9-1.1-8.5,3.5
			c0.4,4,0.7,7.9,1.1,11.9c3.1-0.8,6.2-1.7,9.3-2.5c-2.1-4.6-4.3-9.2-7.3-13.3c-3.2-4.4-10.7-1.9-9.1,3.9c1.1,4,3.3,8.8,3.1,13
			c3.1-0.8,6.2-1.7,9.3-2.5c-2.8-4.6-5.7-9.2-8.8-13.6c-2.5-3.7-4.4-6.9-8.6-8.7c-4-1.6-6.6,2.9-6.2,6.2c0.6,4.2,1.3,8.4,1.9,12.6
			c3.2-0.9,6.4-1.8,9.6-2.7c-2-5.4-4.1-10.8-7.1-15.9c-3-5.1-10.2-1.6-9.1,3.9c1,5.2,2.4,10.3,4.1,15.3c3-1.3,6.1-2.6,9.1-3.9
			c-3.2-5.7-6.5-15.7-14.9-12c-1.6,0.7-2.4,2.7-2.5,4.3c-0.2,4,1.3,8.5,2.1,12.4c3-1.3,6.1-2.6,9.1-3.9c-2.9-5.8-5.9-13-11.5-16.6
			c-4-2.5-8.1,1.6-7.3,5.6c0.9,4.6,1.4,9.1,1.8,13.7c3.3-0.4,6.5-0.9,9.8-1.3c-1.9-5.9-4.5-18-11.7-19.4c-2.9-0.5-6.6,1.3-6.3,4.8
			c0.5,6,1,11.9,1.4,17.9c3.3-0.4,6.5-0.9,9.8-1.3c-2.1-5.6-3.3-12.9-9.5-15.1c-3.3-1.2-6,1.9-6.3,4.8c-0.3,3.6-0.4,7.2-0.3,10.8
			c3.3,0,6.7,0,10,0c-0.4-5.3-0.8-10.9-5.3-14.3c-2.9-2.2-7.9,0.8-7.5,4.3c0.4,4.2,0.9,8.4,1.3,12.6c3.3-0.4,6.5-0.9,9.8-1.3
			c-2.2-5.5-4.1-11.1-5.7-16.8c-1.6-5.8-9.3-4-9.8,1.3c-0.7,6.3,0,12.5,2,18.5c2,6.3,10.5,3.6,9.6-2.7c-0.7-5.3-1.8-10.5-3.3-15.6
			c-1.5-5-4.7-10.4-4.5-15.7C152.6,309.2,142.6,309.3,142.4,315.7L142.4,315.7z"/>
	</g>
</g>
<g id="XMLID_228_">
	<g id="XMLID_261_">
		<path id="XMLID_96_" class="st19" d="M228.5,349.5c-2.1-5.1-7.4-7.6-11.9-10.4c-1.3,3-2.6,6.1-3.9,9.1c1.3,0.4,2.6,1.7,3.9,2.3
			c1.6,0.8,3.3,1.5,5,2.1c3.7,1.2,8.7,1.8,10-3c1.2-4.4-3.1-6.8-6.3-8.5c-1.8-0.9-3.7-1.8-5.6-2.2c-1.8-0.4-3.6-0.4-5.4-1
			c-2.5-0.9-5.5,1-6.2,3.5c-0.8,2.8,0.9,5.2,3.5,6.2c3.9,1.4,8.1,0.9,11.5,3.9c-0.4-0.7-0.9-1.5-1.3-2.2c0,0.1,0.1,0.3,0.1,0.4
			c0.2-1.3,0.3-2.6,0.5-3.9c-0.1,0.1-0.1,0.2-0.2,0.3c1.4-0.8,2.9-1.7,4.3-2.5c-4.1,0.2-7.7-3.9-11.3-5c-5.6-1.7-8.5,6.2-3.9,9.1
			c1.5,1,3.1,2,4.6,3c0.7,0.4,1.4,1,2.1,1.4c0.4,0.2,0.9,1,0.6,0.1c1,2.5,3.3,4.3,6.2,3.5C227.4,355,229.6,352,228.5,349.5
			L228.5,349.5z"/>
	</g>
</g>
<g id="XMLID_229_">
	<g id="XMLID_266_">
		<path id="XMLID_90_" class="st19" d="M224.1,357.4c-5.6-2.4-10.9-5-16.2-8c-0.8,3.1-1.7,6.2-2.5,9.3c5.2-0.2,9.8,1.5,14.5,3.2
			c5.6,2.1,8.2-6.1,3.9-9.1c-5.9-4.1-13.7-8.3-20.9-9.8c-7.7-1.6-16.8-0.4-24.5,0.7c-4.8,0.7-16.3,3.7-10.6,11.2
			c4.3,5.6,15.8,1.9,21.6,2c-1.7-1.7-3.3-3.3-5-5c-0.1-1.2-4.3,1.4-5.2,1.8c-2.5,1.1-5,2.1-7.6,3c1.3,3,2.6,6.1,3.9,9.1
			c5.3-2.7,10.8-5.1,16.4-7.2c-1.9-2.4-3.8-4.9-5.6-7.3c-1.1,2.5-6,4.2-8.3,5.6c-2.9,1.7-5.9,3.5-8.8,5.2c-4.8,2.9-1.7,10.8,3.9,9.1
			c5.5-1.7,10.2-5.5,16-6.3c-1.6-2.8-3.2-5.6-4.9-8.4c-2.6,2.3-5.5,4-8.7,5.3c2,2.6,4,5.2,6.1,7.9c1.7-2,3.4-3.7,5.6-5.1
			c-2.3-2.3-4.6-4.6-6.8-6.8c-2.7,4-5.5,7.8-8.4,11.6c2.6,0.3,5.2,0.7,7.9,1c0-0.2,0-0.3-0.1-0.5c-0.5-3.4-4.8-4.2-7.3-3
			c-2.8,1.4-5.5,2.9-7.4,5.5c-2,2.7-1.6,4.5-2.2,7.4c0.8-1,1.5-2,2.3-3c-1.3,1-2.8,1.6-4.3,2.4c-5.8,2.9-0.7,11.5,5,8.6
			c2.7-1.4,5.8-2.5,6.6-5.7c0.3-1.2,0-2.3,0.5-3.4c0.9-1.7,2.7-2.4,4.4-3.2c-2.4-1-4.9-2-7.3-3c0.2,1.1,0.5,1.9,1.1,2.9
			c1.4,2.6,5.9,3.5,7.9,1c3.5-4.4,6.9-8.9,10-13.6c2.8-4.1-2.7-9.5-6.8-6.8c-2.9,1.9-5.4,4-7.7,6.6c-3.8,4.5,0.9,10.1,6.1,7.9
			c4-1.7,7.4-4,10.7-6.9c4.2-3.7-0.5-9-4.9-8.4c-5.9,0.8-10.4,4.6-16,6.3c1.3,3,2.6,6.1,3.9,9.1c4-2.4,8-4.8,12-7.1
			c3.3-2,7-3.6,8.7-7.2c1.6-3.5-1.1-9-5.6-7.3c-6.4,2.4-12.7,5.1-18.8,8.2c-5,2.5-1.5,11.1,3.9,9.1c6.4-2.4,20.7-5.6,20.2-14.5
			c-0.2-2.7-2.2-5-5-5c-2.6,0-5,0.3-7.6,0.5c-2,0.2-5.7,1.1-7.5,0.2c0.8,1,1.5,2,2.3,3c-0.1-0.2-0.1-0.5-0.2-0.7
			c-0.2,1.3-0.3,2.6-0.5,3.9c-0.3,0.6,4.9-0.2,5.4-0.3c1.9-0.2,3.8-0.4,5.7-0.5c3.7-0.2,7.6-0.7,11.3-0.4c7,0.5,14.7,5.1,20.4,9
			c1.3-3,2.6-6.1,3.9-9.1c-5.6-2.1-11.1-3.8-17.2-3.6c-4.8,0.2-7,6.8-2.5,9.3c5.2,3,10.6,5.6,16.2,8
			C224.9,368.5,230,359.9,224.1,357.4L224.1,357.4z"/>
	</g>
</g>
<g id="XMLID_235_">
	<g id="XMLID_273_">
		<path id="XMLID_70_" class="st19" d="M167.2,386.9c4.2,5.9,9,10.8,16.7,9.7c4.5-0.6,8.7-2.1,13.2-2.7c5-0.6,10-0.6,15-0.3
			c-0.8-3.1-1.7-6.2-2.5-9.3c-9,4.1-19.4,3-28.9,2c-6.4-0.7-6.3,9.3,0,10c11.7,1.2,23.1,1.6,34-3.4c4.9-2.2,1.9-9-2.5-9.3
			c-6.7-0.4-13.4-0.1-20,1c-3,0.5-6,1.6-9.1,2c-3.6,0.5-5.3-2.1-7.2-4.8C172.1,376.7,163.5,381.7,167.2,386.9L167.2,386.9z"/>
	</g>
</g>
<g id="XMLID_236_">
	<g id="XMLID_265_">
		<path id="XMLID_52_" class="st19" d="M176.5,386.2c-8.2,0.8-16.5,1.7-24.7,2.5c1.2,2.8,2.4,5.7,3.5,8.5c6.1-7.7,18.9-1.8,27.1-1.8
			c9.5,0,18.7-2.7,26.8-7.4c5.3-3,1.4-9.9-3.9-9.1c-2.7,0.4-5.2,1-7.8,2c1.6,2.8,3.2,5.6,4.9,8.4c7.2-6.6,13.7-13.6,17.2-23
			c2.1-5.7-6.1-8.1-9.1-3.9c-2.2,3-4.6,5.7-7.3,8.3c2.8,1.6,5.6,3.2,8.4,4.9c1.5-4.3,3.2-8.4,5.1-12.5c-1.9,0.8-3.8,1.5-5.6,2.3
			c1.2,0.4,2.5,1.1,3.7,1.4c0.4,0.1,0.8,0.3,1.3,0.5c0.9,0.6,1,0.1,0.4-1.5c2.1,1.6,4.2,3.2,6.3,4.8c0-0.3,0.1-0.6,0.1-0.8
			c-0.5,1.2-1,2.4-1.5,3.5c2.5-3.1,6.3-7.6,9.7-9.8c-1.3,0.2-2.6,0.3-3.9,0.5c1.7,0.5,3,2.2,4.1,3.4c4.3,4.8,11.4-2.3,7.1-7.1
			c-3.4-3.8-8.7-8.2-13.6-4.5c-2.8,2.1-5.3,5.2-7.8,7.7c-2.3,2.3-3.8,3.8-4.1,7.1c-0.4,3.5,3.5,5.4,6.3,4.8c5.2-1,8.6-6.1,6.9-11.3
			c-1.8-5.3-7.5-6.6-12.2-8.3c-1.9-0.7-4.8,0.4-5.6,2.3c-2.3,4.8-4.4,9.8-6.1,14.8c-1.7,4.9,4.9,8.2,8.4,4.9
			c3.3-3.2,6.2-6.6,8.8-10.3c-3-1.3-6.1-2.6-9.1-3.9c-2.8,7.6-8.8,13.2-14.6,18.5c-3.5,3.2,0.1,10.2,4.9,8.4c2.5-1,5.1-1.6,7.8-2
			c-1.3-3-2.6-6.1-3.9-9.1c-9.7,5.5-20,6.9-30.9,5.2c-8.8-1.4-18.9-2.2-25.1,5.6c-2.3,3-1.3,9,3.5,8.5c8.2-0.8,16.5-1.7,24.7-2.5
			C182.8,395.6,182.9,385.6,176.5,386.2L176.5,386.2z"/>
	</g>
</g>
<g id="XMLID_237_">
	<g id="XMLID_241_">
		<path id="XMLID_49_" class="st19" d="M187.4,357.5c0.4,1.6,0.4,3.2-0.2,4.8c-0.2,0.6-0.6,1.2-1,1.7c-0.6,0.8-1.9,1.2-0.4,1.1
			c1.4,2.5,2.9,5,4.3,7.5c2-3.1,3.6-6.5,4.8-9.9c1.2-3.4,1.4-6.8,2.3-10.2c-0.8,1-1.5,2-2.3,3c0.2-0.1,0.3-0.2,0.5-0.4
			c-1.3,0.2-2.6,0.3-3.9,0.5c0.2,0.1,0.4,0.2,0.6,0.4c5.7,3.1,10.7-5.6,5-8.6c-5.3-2.9-9.2-0.7-10.1,5.2c-0.8,5.5-2.7,10.4-5.6,15.1
			c-1.9,3,0.5,7.9,4.3,7.5c9.3-0.8,13.2-12.3,11.2-20.2C195.5,348.6,185.9,351.3,187.4,357.5L187.4,357.5z"/>
	</g>
</g>
<ellipse id="XMLID_105_" class="st20" cx="180.3" cy="357.9" rx="22.7" ry="24"/>
<path id="XMLID_1169_" class="st21" d="M249.1,498.2c1.5,26.7-16.8,49.4-40.8,50.8c-6.3,0.4-12.3-0.8-17.9-3.1V623H178V234.5
	c16.3,8.1,30.1,21.3,38.6,38.7c3.2,6.6,5.5,13.3,6.8,20.2c18.7-3.6,38.7-1.1,56.9,8c1.3,17.9-2.8,35.9-12.9,51.7
	c-1.2,1.8-2.4,3.6-3.7,5.3c14.4,13.7,24.7,32.4,28.5,53.6c-14.3,11.3-32.2,18-51.6,18.2c-7.1,0.1-14-0.8-20.6-2.4
	c-5.4,16.3-15.6,31.5-29.6,43.3v55.9c6.9-19.4,23.8-33.5,44.2-34.7c4.8-0.3,9.5,0.2,14,1.3C248.9,495.2,249,496.7,249.1,498.2z"/>
<path id="XMLID_9_" class="st22" d="M263,174.2h-32.7c-1.8,0-3.3-1.5-3.3-3.3l0,0c0-1.8,1.5-3.3,3.3-3.3H263c1.8,0,3.3,1.5,3.3,3.3
	l0,0C266.3,172.7,264.8,174.2,263,174.2z"/>
<path id="XMLID_10_" class="st22" d="M448,186.3h-38c-1.6,0-3-1.4-3-3l0,0c0-1.7,1.4-3,3-3h38c1.6,0,3,1.3,3,3l0,0
	C451,185,449.7,186.3,448,186.3z"/>
<g id="XMLID_11_">
	<g id="XMLID_296_">
		<path id="XMLID_27_" class="st23" d="M424.4,304.4c-2.6,1.2-5.2,2.4-7.8,3.6c-11.3,5.2-8.8,25.3,3.6,27.4
			c10,1.7,19.7,1.6,29.4-1.9c7.1-2.5,11.8-8.7,10.7-16.5c-1-7.2-7.2-13.2-14.7-13c-11.4,0.3-21.4,6.9-25.3,17.7
			c-0.4,0.8-0.7,1.7-0.9,2.5c-1,4.4,1.3,2.6,7-5.5c1.8-0.4,3.6-0.5,5.3,0.4c0.7,0.2,1.3,0.7,1.6,1.4c-0.6-0.8-1.1-1.7-1.6-2.5
			c-1.5-2.3-3.2-4.5-5-6.6c0.8,6.1,1.6,12.1,2.3,18.2c0.9-1.7,1.9-3.4,3-5.1c0.1-0.1,2.8-3.6,1.2-1.7c2.2-2.7,4.7-5,7.2-7.4
			c1.4-1.1,1.5-1.3,0.4-0.4c0.8-0.6,1.6-1.2,2.4-1.7c1.2-0.8,2.5-1.6,3.7-2.4c1.5-0.9,3-1.7,4.6-2.4c0.7-0.3,1.3-0.6,2-0.9
			c-1.3,0.6-1.1,0.5,0.5-0.1c3.3-1.1,6.5-2,9.9-2.7c4.4-0.9-2.7,0,1.8-0.2c2-0.1,3.9-0.1,5.9-0.2c6.8-0.3,12.4-2.6,16.4-8.4
			c1.8-2.7,2.7-1.5-2.1,1.1c-5.2,2.9-10.7,0.4-12.7-5.4c4.3,12.5,20.1,14.5,27.4,3.6c-1.2,1.8-2.9,3.3-5.1,3.7
			c-1.3,0.2-2.3-0.5-3.4-0.4c-0.2-0.2-0.4-0.4-0.6-0.6c0.6,0.5,1.1,1,1.6,1.6c0.3,0.3,2.3,2.8,1,1.1c4.2,5.5,7.8,10.4,13.8,14
			c5.7,3.4,13.5,2.3,18.2-2.3c5.1-5.1,5.1-12,2.3-18.2c-2.7-6.2-6.9-11.8-11.8-16.4c-5.4-5.1-13.8-5.9-19.7-1.2
			c-5.5,4.4-8.1,13-3.9,19.4c8.2,12.2,16.4,24.4,24.7,36.5c4.5,6.7,13.2,9.7,20.5,5.4c7.1-4.2,9.3-13.4,5.4-20.5
			c-4.9-8.8-13.8-14.2-23.6-15.9c-9.5-1.6-21-1.8-30,1.8c-0.9,0.4-10.8,6.1-10.6,6.3c-0.2-0.2,3.5-0.4,3.3-0.4
			c1.3,0.6,1.2,0.5-0.4-0.3c-0.9-0.5-1.8-1-2.6-1.5c-10.4-5.8-20.2-5.6-31.7-3.9c5.6,7.3,11.3,14.7,16.9,22
			c-1.2,1.8,2.7-2.1,0.9-0.9c0.8-0.5,1.7-1.1,2.7-1.5c-1.5,0.7,0,0,0.7-0.1c2.4-0.6,2.4-0.7,4.3-0.9c2.4-0.2,4.8-0.2,7.2-0.2
			c6.7,0,14,0.6,19.1-4.6c6.1-6.1,6.4-15.2,1.3-21.9c-3.7-4.9-8.9-6.8-14.6-8.2c-2.2-0.5-4.4-1.1-6.5-1.8c-2.7-0.9-1.5-0.3-3.8-1.8
			c-0.2-0.2-1.2-0.8-1-1c-0.5-0.8-0.5-0.9-0.1-0.2c0.3,0.3,0.4,0.7,0.3,1.1c0,0.6-0.6,2.8-0.1,1.4c0.6-1.6-0.4,0.9-0.6,1.1
			c-1.2,1.2-3,2.5-4.8,2.7c-3.8,0.6-6.4-2.6-7.6-5.8c2.5,6.7,7.3,10.5,14.5,11c5.4,0.4,10.2-2.3,13.5-6.4c1.6-2,2.5-3.4,3.3-6
			c1-3.4,1.6-1.4-2,1.9c-2.2,1.3-4.4,2.6-6.6,3.9c0.4-0.1,0.7-0.2,1.1-0.2c-2.7,0-5.3,0-8,0c-3.8-2.6-4.6-2.8-2.4-0.6
			c1.1,1.4,1.5,1.8,1.1,1.2c0.7,0.9,2.1,2.9,3,4.3c4.3-7.5,8.6-15,13-22.6c-1.1,0-3.1-0.4-3.7-0.7c-0.5-0.3-3.1-1.7-1.5-0.6
			c-0.6-0.5-1.2-1-1.7-1.6c-0.7-0.8-0.7-0.7-0.1,0.1c-3.2,4.9-6.3,9.9-9.5,14.8c-0.8,0.1-1.5,0-2.2-0.4c-1.7-0.2,1,1.1-0.1-0.1
			c2.5,2.5,2.3,1.8,4.3,5.7c3.8,7.2,13.8,9.3,20.5,5.4c7.3-4.2,9.2-13.3,5.4-20.5c-4.2-8.1-11.5-15.7-20.3-18.7
			c-9.2-3.1-20.1-0.4-25.1,8.5c-5.4,9.9-0.4,21.2,7.5,28c7.5,6.5,16.6,9.8,26.5,10.1c11,0.4,19.2-13.1,13-22.6
			c-4.7-7.1-10.3-16.1-19-18.5c-5.9-1.6-12.2-0.1-16.6,4.2c-1.9,1.9-2.9,3.7-3.9,6.1c-0.5,0.9-0.8,1.8-1,2.8
			c-0.3,1.6-0.2,1.4,0.4-0.6c1.8-1.8,3.6-3.6,5.4-5.4c-0.3,0.2-0.5,0.3-0.8,0.5c2.5-0.7,5-1.4,7.6-2c-0.3,0-0.6,0-0.9-0.1
			c4.8,3.7,9.6,7.3,14.5,11c-3.8-10-12.3-16.6-23.3-16c-11.1,0.6-20,9.2-21.9,20c-2.1,11.9,3.5,22.4,13.1,29.3
			c3.7,2.6,7.8,4.4,12,5.8c2.1,0.7,4.3,1.3,6.5,1.8c1.1,0.3,2.2,0.5,3.3,0.8c3.9,1.2,2.5-0.1-4.2-3.8c-0.7-2.5-1.4-5-2-7.6
			c0,0.3,0,0.5,0,0.8c1.5-3.5,2.9-7.1,4.4-10.6c-0.2,0.2-0.4,0.4-0.6,0.6c2.2-1.3,4.4-2.6,6.6-3.9c1.4-0.4,1.1-0.5-1-0.3
			c-1.2,0-2.4,0-3.6,0c-1.8,0-3.6,0-5.4,0.1c-4.6,0.2-9.6,0.7-14,2.1c-9.3,2.8-16.9,8.2-22.2,16.3c-3.2,5-2.4,12.2,1.2,16.7
			c4.1,5.1,9.5,6.3,15.8,5.4c-1.2,0.2,2.8-0.2,3.3-0.2c-0.1,0,4.9,0.5,3.1,0.1c-1.6-0.4,1.6,0.8,2.2,1c1.3,0.7,2.6,1.5,4,2.2
			c8.7,4.4,18.2,5,26.7-0.4c2-1.2,5.3-3.9,6.4-4.3c0.4-0.2,0.9,0,1.3,0c1.7-0.1,3.4-0.1,5.1-0.2c3.6-0.1,5.7,0,8.2,0.7
			c1,0.3,0.9,0.3-0.2-0.2c1.3,0.9,1.6,1,0.9,0.3c-0.7-0.7-0.5-0.5,0.7,0.6c-0.8-1.2-0.8-1.1,0.1,0.4c8.6-5,17.3-10.1,25.9-15.1
			c-8.2-12.2-16.4-24.4-24.7-36.5c-7.9,6.1-15.7,12.1-23.6,18.2c0.8,0.8,1.6,1.5,2.4,2.3c0.4,0.4,0.7,0.8,1.1,1.2
			c-0.5-0.6-0.4-0.6,0.2,0.3c1.4,2.1,2.5,4.3,3.5,6.5c6.8-6.8,13.7-13.7,20.5-20.5c-1.5-0.9-1.7-1-0.6-0.4c-0.7-0.7-1.4-1.5-2.1-2.3
			c1.5,1.8-4.1-5.4-3.7-4.9c-3-3.8-6.5-7.1-10.9-9.4c-11.3-5.8-24.3-2.3-31.2,8.1c9.1,1.2,18.3,2.4,27.4,3.6
			c-3.1-9-10.6-15.2-20.3-15.3c-4.1-0.1-8,1-11.5,3.1c-3.9,2.4-5.7,5.8-8.3,9.3c1.8-1.8,3.6-3.6,5.4-5.4c4.7-0.8,5.5-1.2,2.7-1
			c-0.7,0-1.5,0-2.2,0.1c-1.5,0.1-2.9,0.2-4.4,0.4c-4,0.5-8,1-11.9,2c-6.7,1.7-13.3,4.5-19.2,7.9c-12.2,7-22.6,17.4-29.4,29.8
			c-3.5,6.3-2.1,12.9,2.3,18.2c-1-1.2-0.1-0.1,0.3,0.5c0.7,1,1.3,2.1,2.1,3.1c2.3,3.2,4.6,5.9,7.8,8.1c5,3.4,11.7,4.9,17.7,3.4
			c6.2-1.5,11.2-5.5,13.7-11.4c0.6-1.5,1-2.8,1.3-4.3c0.4-1.8,0.7-0.9,0-0.1c-0.7,0.7-1.3,1.2-2.1,1.8c-0.8,0.2-0.8,0.2,0.1,0
			c1.1-0.3,0.9-0.3-0.7,0.1c-1.3-9.8-2.7-19.6-4-29.5c-4.9,1.7-9.4,2.5-13.4,1.9c1.2,9.1,2.4,18.3,3.6,27.4c2.6-1.2,5.2-2.4,7.8-3.6
			c7.4-3.4,9.2-14,5.4-20.5C440.5,302.3,431.7,301,424.4,304.4L424.4,304.4z"/>
	</g>
</g>
</svg>
